<?xml version="1.0" encoding="UTF-8"?>
<svg xmlns="http://www.w3.org/2000/svg" viewBox="0 0 363.19 135.37">
  <defs>
    <style>
      .cls-1 {
        letter-spacing: 0em;
      }

      .cls-2 {
        letter-spacing: -.02em;
      }

      .cls-3 {
        letter-spacing: -.02em;
      }

      .cls-4 {
        letter-spacing: -.02em;
      }

      .cls-5 {
        isolation: isolate;
      }

      .cls-6 {
        letter-spacing: -.03em;
      }

      .cls-7 {
        mix-blend-mode: lighten;
      }

      .cls-7, .cls-8, .cls-9 {
        fill: none;
        stroke: #fff;
        stroke-miterlimit: 1;
        stroke-width: .5px;
      }

      .cls-10 {
        letter-spacing: 0em;
      }

      .cls-11 {
        letter-spacing: -.01em;
      }

      .cls-12 {
        font-family: Montserrat-Regular, Montserrat;
        font-size: 17.42px;
      }

      .cls-12, .cls-13 {
        fill: #fff;
      }

      .cls-8 {
        mix-blend-mode: multiply;
        opacity: .3;
      }

      .cls-14 {
        letter-spacing: -.02em;
      }

      .cls-15 {
        letter-spacing: -.01em;
      }

      .cls-16 {
        letter-spacing: -.01em;
      }

      .cls-17 {
        letter-spacing: -.01em;
      }

      .cls-13 {
        font-family: Montserrat-Bold, Montserrat;
        font-size: 34.91px;
        font-weight: 700;
      }
    </style>
  </defs>
  <g class="cls-5">
    <g id="Layer_2" data-name="Layer 2">
      <g id="Layer_2-2" data-name="Layer 2">
        <g>
          <g>
            <polygon class="cls-9" points="58.37 90.7 57.97 91.57 57.81 91.93 57.73 92.07 56.46 94.83 56.46 94.85 30.95 117.67 22.42 118.5 30.15 111.05 53.54 93.94 55.49 92.51 55.51 92.51 57.46 91.08 57.69 90.9 57.71 90.9 57.71 90.88 57.73 90.88 58.37 90.7"/>
            <polygon class="cls-9" points="54.59 99.09 53.52 101.29 53.5 101.33 35.46 123.43 25.64 126.47 54.48 99.2 54.5 99.18 54.5 99.16 54.59 99.09"/>
            <polygon class="cls-9" points="55.69 104.75 45.69 124.32 33.13 133.35 52.53 105.9 52.57 106.52 55.69 104.75"/>
            <polygon class="cls-9" points="53.04 102.3 52.37 103.78 52.53 105.9 33.13 133.35 35.46 123.43 53.5 101.33 53.04 102.3"/>
            <polygon class="cls-9" points="56.46 94.85 56.26 95.29 56.26 95.31 56.01 95.85 54.5 99.16 54.5 99.18 54.48 99.2 25.64 126.47 30.95 117.67 56.46 94.85"/>
            <polygon class="cls-9" points="61.41 101.65 53.06 127.36 45.25 135.19 45.27 134.72 59.36 102.66 59.72 102.46 61.41 101.65"/>
            <polygon class="cls-9" points="59.36 102.66 45.27 134.72 45.69 124.32 55.69 104.75 56.1 104.51 56.42 104.33 59.36 102.66"/>
            <polygon class="cls-9" points="47.04 46.09 47.02 46.09 47.02 46.11 27.17 53.02 22.18 50.16 22.82 48.35 22.94 48.41 45.17 43.86 44.82 43.4 44.86 43.4 47.04 46.09"/>
            <polygon class="cls-9" points="57.69 90.9 57.46 91.08 55.51 92.51 55.49 92.51 47.92 94.4 50.56 92.89 53.16 91.4 51.65 92.59 57.69 90.9"/>
            <polygon class="cls-9" points="55.49 92.51 53.54 93.94 31.66 103.66 31.58 103.7 23.95 100.36 50.56 92.89 47.92 94.4 55.49 92.51"/>
            <polygon class="cls-9" points="53.54 93.94 30.15 111.05 21.63 109.38 31.58 103.7 31.66 103.66 53.54 93.94"/>
            <polygon class="cls-9" points="63.58 100.6 54.89 135.19 53.06 127.36 61.41 101.65 61.43 101.63 63.58 100.6"/>
            <polygon class="cls-9" points="66.02 99.4 61.03 126.47 54.89 135.19 63.58 100.6 63.8 100.5 66.02 99.4"/>
            <polygon class="cls-9" points="67.75 98.57 65.56 131.56 61.03 126.47 66.02 99.4 67.75 98.57"/>
            <polygon class="cls-9" points="68.84 98.03 68.84 124.22 65.56 131.56 67.75 98.57 68.84 98.03"/>
            <polygon class="cls-9" points="74.37 127.03 68.84 124.22 68.84 97.71 69.84 97.56 69.9 97.48 74.37 127.03"/>
            <polygon class="cls-9" points="69.94 96.44 69.94 96.46 69.74 96.5 69.94 96.44"/>
            <polygon class="cls-9" points="75.68 119.89 74.37 127.03 69.9 97.48 70.07 97.22 70.79 96.22 70.81 96.22 75.68 119.89"/>
            <polygon class="cls-9" points="69.94 96.44 69.94 96.46 69.74 96.5 69.94 96.44"/>
            <polygon class="cls-9" points="70.81 96.2 70.81 96.22 70.79 96.22 69.98 96.44 69.98 96.42 70.81 96.2"/>
            <polygon class="cls-9" points="45.17 43.86 22.94 48.41 22.82 48.35 15.72 44.14 16.82 42.43 18.01 43.4 43.64 42.01 43.66 42.01 44.82 43.4 45.17 43.86"/>
            <polygon class="cls-9" points="43.68 42.01 44.82 43.4 43.66 42.01 43.64 42.01 42.97 41.18 42.71 40.82 43.68 42.01"/>
            <polygon class="cls-9" points="45.19 43.86 45.17 43.86 44.82 43.4 45.19 43.86"/>
            <polygon class="cls-9" points="40.66 38 39.55 36.45 40.78 38.04 40.68 38.02 40.66 38"/>
            <polygon class="cls-9" points="43.64 42.01 18.01 43.4 16.82 42.43 8.31 35.47 13.14 35.2 16.52 38.32 42.71 40.82 42.97 41.18 43.64 42.01"/>
            <polygon class="cls-9" points="43.68 42.01 43.64 42.01 42.97 41.18 42.71 40.82 43.68 42.01"/>
            <polygon class="cls-9" points="115.56 45.31 115.05 45.77 110.83 34.52 113.56 37.6 115.56 45.31"/>
            <polygon class="cls-9" points="115.05 45.77 114.67 46.09 113.93 46.6 113.32 47.04 110.22 44.99 110.24 44.75 110.83 34.52 115.05 45.77"/>
            <polygon class="cls-9" points="108.84 58.43 98.4 71.28 98.37 71.28 98.37 71.31 95.46 70.95 95.49 70.91 108.84 58.43"/>
            <polygon class="cls-9" points="122.3 45.53 119.14 51.39 109.92 57.21 108.84 58.43 95.49 70.91 95.46 70.95 94.6 70.57 94.62 70.55 118.01 48.09 122.3 45.53"/>
            <polygon class="cls-9" points="96.88 63.5 96.8 63.73 94.6 70.55 94.6 70.57 92.14 70.57 92.14 70.55 92.15 70.55 96.88 63.5"/>
            <polygon class="cls-9" points="97.12 63.27 97.12 63.3 96.88 63.5 92.15 70.55 92.14 70.55 92.14 70.57 90.01 69.99 89.99 69.99 88.63 69.62 88.4 69.56 88.28 69.53 86.01 68.94 97.12 63.27"/>
            <polygon class="cls-9" points="97.12 63.3 96.8 63.73 92.15 70.55 96.88 63.49 97.12 63.3"/>
            <polygon class="cls-9" points="108.98 50.06 106.72 51.65 106.7 51.67 100.4 56.08 99.76 55.07 102.45 53.6 102.47 53.58 108.93 50.06 108.98 50.06"/>
            <polygon class="cls-9" points="109.24 49.88 108.98 50.06 108.93 50.06 109.24 49.88"/>
            <polygon class="cls-9" points="108.93 50.06 102.47 53.58 102.45 53.6 103.36 49.66 108.93 50.06"/>
            <polygon class="cls-9" points="110.02 49.35 109.94 49.4 109.24 49.88 108.98 50.06 108.93 50.06 103.36 49.66 105.71 48.79 110.02 49.35"/>
            <polygon class="cls-9" points="122.3 45.53 118.01 48.09 94.62 70.55 94.6 70.55 96.8 63.73 97.12 63.3 97.12 63.28 98.43 62.1 112.24 49.74 113.71 48.43 114.33 48.19 114.33 48.17 118.4 46.56 118.66 46.46 122.3 45.53"/>
            <polygon class="cls-9" points="113.32 47.04 110.02 49.35 109.94 49.4 105.71 48.79 107.26 43.28 110.24 44.75 110.22 44.99 113.32 47.04"/>
            <polygon class="cls-9" points="113.71 48.43 112.24 49.74 112.2 49.74 113.63 48.45 113.71 48.43"/>
            <polygon class="cls-9" points="114.33 48.17 114.33 48.19 113.71 48.43 113.71 48.41 114.33 48.17"/>
            <polygon class="cls-9" points="115.64 45.23 115.56 45.31 113.56 37.6 115.16 28.34 115.64 45.23"/>
            <polygon class="cls-9" points="116.99 44.04 116.99 44.1 116.95 44.12 116.99 44.04"/>
            <path class="cls-9" d="m116.38,35.14l-.02,9.1.06-.02-.1.44-.68.58-.48-16.89s1.88,5.36,1.87,5.39l-.66,1.41Z"/>
            <polygon class="cls-9" points="120.63 25.84 117.19 40.62 117.19 40.66 116.42 44.22 116.36 44.24 116.38 35.14 117.03 33.73 117.03 33.71 120.63 25.84"/>
            <path class="cls-9" d="m121.23,33.45c-.17.41-4.6,10.91-4.59,10.95l-.32.26c.03-.09.82-3.76.87-3.99v-.04l3.44-14.78.6,7.61Z"/>
            <path class="cls-9" d="m124.64,29.35c-1.61,3.11-6.17,11.79-7.69,14.77h-.02l-.3.28c.09-.3,4.38-10.42,4.59-10.95l3.42-4.09Z"/>
            <path class="cls-9" d="m124.64,29.35l-1.37,7.75-2.58,4.01.16-.36c-.83.71-3.09,2.63-3.86,3.34v-.06c1.48-2.88,6.1-11.68,7.65-14.69Z"/>
            <polygon class="cls-9" points="116.99 44.04 116.99 44.1 116.95 44.12 116.99 44.04"/>
            <path class="cls-9" d="m115.05,45.77c.61-.57,1.45-1.23,2.06-1.8.71-.58,3-2.59,3.75-3.21-.15.28-2.3,5.47-2.44,5.8-.42.16-4.4,1.74-4.69,1.85v.02l-.08.02c-1.86,1.68-14.63,13.14-16.51,14.82l-11.11,5.66h-.04l-2.86-.76c4.52-3.16,19.33-13.53,23.59-16.51l.02-.02c2.53-1.8,5.85-4.01,8.33-5.88Z"/>
            <polygon class="cls-9" points="114.33 48.17 114.33 48.19 113.71 48.43 113.71 48.41 114.33 48.17"/>
            <polygon class="cls-9" points="113.71 48.43 112.24 49.74 98.43 62.1 112.2 49.74 113.63 48.45 113.71 48.43"/>
            <polygon class="cls-9" points="94.6 70.55 94.62 70.55 94.6 70.57 94.6 70.55"/>
            <polygon class="cls-9" points="97.12 63.3 96.8 63.73 96.88 63.49 97.12 63.3"/>
            <polygon class="cls-9" points="113.71 48.43 112.24 49.74 98.43 62.1 112.2 49.74 113.63 48.45 113.71 48.43"/>
            <polygon class="cls-9" points="114.33 48.17 114.33 48.19 113.71 48.43 113.71 48.41 114.33 48.17"/>
            <polygon class="cls-9" points="98.37 71.28 98.37 71.31 95.46 70.95 94.6 70.57 92.14 70.57 92.14 70.55 94.62 70.55 95.46 70.91 95.49 70.91 98.37 71.28"/>
            <polygon class="cls-9" points="96.68 75.36 96.68 75.38 96.66 75.36 96.68 75.36"/>
            <polygon class="cls-9" points="88.28 69.53 88.1 72.45 88.1 72.48 81.53 69.14 81.52 69.13 66.96 47.06 81.6 67.35 83.11 68.19 85.97 68.94 86.01 68.94 88.28 69.53"/>
            <polygon class="cls-9" points="64.87 42.17 58.3 33.24 48.39 24.24 64.87 42.17"/>
            <polygon class="cls-9" points="64.87 42.17 64.33 42.37 64.19 42.23 49.86 29.67 49.29 29.16 48.39 24.25 64.87 42.17"/>
            <polygon class="cls-9" points="46.08 26.91 24.45 2.2 28.01 13.16 44.22 29.59 46.08 26.91"/>
            <polygon class="cls-9" points="44.22 29.59 42.25 32.47 21.17 13.08 14.53 .18 27.91 12.86 44.22 29.59"/>
            <polygon class="cls-9" points="42.25 32.47 41.38 33.75 41.16 34.1 41.14 34.1 40.9 33.92 40.49 33.65 15.17 16.26 6.23 2.63 21.17 13.08 42.25 32.47"/>
            <polygon class="cls-9" points="42.25 32.47 41.4 33.75 41.16 34.1 41.38 33.75 42.25 32.47"/>
            <polygon class="cls-9" points="41.02 34.28 40.19 35.51 36.47 33.86 10.88 22.58 9.5 20.71 .4 8.35 15.17 16.26 40.49 33.65 40.9 33.92 41.02 34.28"/>
            <polygon class="cls-9" points="41.16 34.1 41.04 34.28 41.02 34.28 40.9 33.92 41.14 34.1 41.16 34.1"/>
            <polygon class="cls-9" points="47.82 47.06 25.6 56.52 27.17 53.02 47.02 46.11 47.82 47.06"/>
            <polygon class="cls-9" points="49.69 47.99 29.61 58.19 25.61 56.51 47.81 47.06 49.69 47.99"/>
            <polygon class="cls-9" points="29.12 60.49 29.61 58.19 49.69 47.99 52.51 48.41 29.12 60.49"/>
            <polygon class="cls-9" points="52.51 48.41 51.87 49.8 32.62 62.04 29.12 60.49 52.51 48.41"/>
            <polygon class="cls-9" points="51.87 49.8 50.64 52.56 50.42 53.02 35.22 65.78 32.38 64.89 32.38 62.24 51.87 49.8"/>
            <polygon class="cls-9" points="47.82 58.37 54.32 54.11 53.3 55.25 53.28 55.25 38.76 69.18 35.46 68.14 35.22 65.78 50.42 53.02 47.82 58.37"/>
            <polygon class="cls-9" points="56.86 52.45 56.64 52.76 56.58 52.8 56.86 52.45"/>
            <polygon class="cls-9" points="61.01 49.74 59.84 51.51 44.34 75 41.62 74.19 41.62 71.3 55.87 53.72 56.58 52.8 56.64 52.76 56.86 52.45 60.36 50.16 60.42 50.12 61.01 49.74"/>
            <polygon class="cls-9" points="56.86 52.45 56.64 52.76 56.58 52.8 56.86 52.45"/>
            <polygon class="cls-9" points="61.05 49.68 61.01 49.74 60.42 50.12 61.05 49.68"/>
            <polygon class="cls-9" points="56.86 52.45 56.58 52.8 55.87 53.72 41.62 71.3 39.17 70.89 38.76 69.18 53.28 55.25 53.3 55.25 54.32 54.11 56.86 52.45"/>
            <polygon class="cls-9" points="56.86 52.45 56.64 52.76 56.58 52.8 56.86 52.45"/>
            <polygon class="cls-9" points="47.02 46.09 47.04 46.09 44.86 43.4 44.82 43.4 43.68 42.01 42.71 40.82 40.68 38.02 40.78 38.04 39.55 36.45 40.19 35.51 41.02 34.28 41.04 34.28 41.16 34.1 41.4 33.75 46.88 37.16 47.82 47.06 47.02 46.11 47.02 46.09"/>
            <polygon class="cls-9" points="40.68 38.02 40.68 38 40.66 38 39.55 36.45 40.78 38.04 40.68 38.02"/>
            <polygon class="cls-9" points="41.16 34.1 41.04 34.28 41.02 34.28 41.14 34.1 41.16 34.1"/>
            <polygon class="cls-9" points="41.4 33.75 41.16 34.1 41.38 33.75 41.4 33.75"/>
            <polygon class="cls-9" points="44.82 43.4 43.66 42.01 43.64 42.01 42.97 41.18 42.71 40.82 43.68 42.01 44.82 43.4"/>
            <polygon class="cls-9" points="46.88 37.16 41.4 33.75 42.25 32.47 44.22 29.59 46.05 26.89 46.29 26.53 46.88 37.16"/>
            <polygon class="cls-9" points="47.04 46.09 47.02 46.09 45.19 43.86 45.17 43.86 44.82 43.4 44.86 43.4 47.04 46.09"/>
            <polygon class="cls-9" points="66.26 46.11 54.12 45.83 52.05 35.99 46.88 37.16 46.29 26.53 49.29 29.16 49.86 29.67 64.19 42.23 64.33 42.37 65.03 43.05 66.26 46.11"/>
            <polygon class="cls-9" points="52.05 35.99 47.82 47.06 46.88 37.16 52.05 35.99"/>
            <polygon class="cls-9" points="54.12 45.83 48.33 47.32 48.31 47.32 47.82 47.06 52.05 35.99 54.12 45.83"/>
            <polygon class="cls-7" points="46.88 37.16 41.4 33.75 41.38 33.75 42.25 32.47 44.22 29.59 46.05 26.89 46.29 26.53 46.88 37.16"/>
            <polygon class="cls-9" points="66.26 46.11 66.24 46.13 62.34 48.87 60.4 48.15 54.12 45.83 66.26 46.11"/>
            <polygon class="cls-9" points="60.4 48.15 52.51 48.41 49.69 47.99 48.33 47.32 54.12 45.83 60.4 48.15"/>
            <polygon class="cls-9" points="62.34 48.87 61.01 49.74 61.05 49.68 62.34 48.87"/>
            <polygon class="cls-9" points="62.34 48.87 62.13 53 50 80.17 46.29 79.19 58.35 56.4 62.34 48.87"/>
            <polygon class="cls-9" points="62.04 54.69 52.11 83.46 50 80.18 62.13 53 62.04 54.69"/>
            <polygon class="cls-9" points="62.07 67.37 62.07 77.21 55.05 84.14 54.89 84.28 53.34 85.61 52.11 83.47 62.05 54.69 62.07 67.37"/>
            <polygon class="cls-9" points="42.71 40.82 16.52 38.32 13.14 35.2 3.9 26.67 9.48 27.61 10.36 28.56 28.82 34.3 39.77 37.72 40.25 37.86 40.66 38 40.68 38.02 42.71 40.82"/>
            <polygon class="cls-9" points="40.66 38 40.25 37.86 39.77 37.72 28.82 34.3 10.36 28.56 9.48 27.61 .18 17.47 9.5 20.71 10.88 22.58 36.47 33.86 40.19 35.51 39.55 36.45 40.66 38"/>
            <polygon class="cls-9" points="40.68 38.02 40.68 38 40.66 38 39.55 36.45 40.78 38.04 40.68 38.02"/>
            <polygon class="cls-9" points="62.34 48.87 61.05 49.68 60.42 50.12 60.36 50.16 56.86 52.45 54.32 54.11 47.82 58.37 50.42 53.02 50.64 52.56 51.87 49.8 52.51 48.41 60.4 48.15 62.34 48.87"/>
            <polygon class="cls-9" points="63.2 81.84 63.12 81.9 63.1 81.92 63.08 81.92 54.89 84.28 55.05 84.14 62.07 77.21 63.2 81.84"/>
            <polygon class="cls-9" points="63.2 81.84 63.2 81.88 63.12 81.9 63.2 81.84"/>
            <polygon class="cls-9" points="66.24 46.12 67.27 59.16 62.04 54.69 62.35 48.87 66.24 46.12"/>
            <polygon class="cls-9" points="62.04 54.69 67.27 59.16 63.93 72.2 62.04 54.69"/>
            <polygon class="cls-9" points="81.52 69.14 63.6 82.69 63.08 81.92 63.1 81.92 63.12 81.9 63.2 81.88 63.2 81.84 62.07 77.21 62.07 67.37 63.93 72.2 64.39 73.41 81.52 69.14"/>
            <polygon class="cls-9" points="67.27 59.16 63.93 72.2 62.07 67.37 62.05 54.69 67.27 59.16"/>
            <polygon class="cls-9" points="81.52 69.14 64.39 73.41 63.93 72.2 67.27 59.16 81.52 69.14"/>
            <polygon class="cls-9" points="81.52 69.14 67.27 59.16 66.24 46.13 66.95 47.06 81.52 69.14"/>
            <path class="cls-9" d="m104.87,75.56c-.61-.46-1.56-1.8-2.01-2.42.02.07.24.67.4,1.15-.12-.13-.8-1.07-.98-1.09,0-.02-.01-.02-.01-.02l-2.15-1.39c.06.07.86,1.02.9,1.05-.64-.37-1.72-1.3-2.17-1.88l.52.95-.97-.61h-.02v.02c-.69-.1-3.23-.28-3.78-.73-1.99.24-4.44-.51-6.32-1.04l-.18,2.92c1.62.42,7.09,2.65,8.59,2.9v.02c1.3.14,2.75.74,3.9,1.35l-.04-.08.56.28.81,1.1h0s.11.14.14.18c.37-.09,1.06-.81,1.31-1.07.17.18.95,1,1.13,1.19l.1.3.58-2.15-.3-.91Z"/>
            <polygon class="cls-9" points="63.2 81.84 63.2 81.88 63.12 81.9 63.2 81.84"/>
            <polygon class="cls-9" points="81.52 69.14 73.73 80.88 73.55 81.16 69.32 82.41 69.2 82.45 63.8 84.02 62.05 84.54 62.01 84.56 61.09 84.84 63.44 82.81 63.6 82.69 81.52 69.14"/>
            <polygon class="cls-9" points="69.2 82.45 63.78 84.04 62.05 84.54 63.8 84.02 69.2 82.45"/>
            <polygon class="cls-9" points="83.45 75.54 82.14 80.11 73.73 80.88 81.52 69.14 83.45 75.54"/>
            <polygon class="cls-9" points="88.1 72.48 86.71 78.34 81.52 69.14 88.1 72.48"/>
            <polygon class="cls-9" points="87.04 81.66 86.72 78.34 81.53 69.15 83.46 75.53 87.04 81.66"/>
            <polygon class="cls-9" points="92.29 79.15 89.15 75.64 88.12 72.5 91.58 76.63 92.29 79.15"/>
            <polygon class="cls-9" points="92.41 80.05 87.36 82.02 87.05 81.66 86.71 78.34 88.1 72.48 88.12 72.5 89.15 75.64 92.29 79.15 92.41 80.05"/>
            <g>
              <polygon class="cls-9" points="95 74.9 91.57 76.63 88.12 72.5 88.1 72.48 88.1 72.45 94.6 74.66 95 74.9"/>
              <polygon class="cls-9" points="98.41 78.92 98.29 79.05 97.42 79.93 92.41 80.05 92.29 79.15 91.58 76.63 94.99 74.9 95.21 75.38 95.23 75.38 95.51 75.99 95.95 76.89 96.15 77.31 97.2 78.06 98.09 78.7 98.41 78.92"/>
            </g>
            <polygon class="cls-9" points="101.63 81.84 101.57 82.02 101.47 82.04 101.51 82.02 99.37 82.43 93.07 83.53 91.91 83.68 88.77 82.47 88.24 82.43 88.18 82.43 88.02 82.59 87.36 82.33 87.36 82.02 92.41 80.05 97.42 79.93 97.74 80.43 101.63 81.84"/>
            <polygon class="cls-9" points="101.63 81.84 97.74 80.43 99.23 80.9 100.12 81.24 101.63 81.84"/>
            <polygon class="cls-9" points="87.36 82.02 87.36 82.33 82.14 80.11 83.45 75.54 87.05 81.66 87.36 82.02"/>
            <polygon class="cls-9" points="93.21 84.74 89.55 87.48 89.53 87.48 82.95 90.02 83.27 88.89 84.4 84.96 91.91 84.18 91.93 84.18 93.21 84.74"/>
            <path class="cls-9" d="m101.47,82.04l-9.64,2.09.14.06c-.08,0-7.49.77-7.57.77l2.96-2.62.66.26.16-.16s.56.04.6.04l3.14,1.21c2.21-.3,7.44-1.24,9.6-1.67l-.04.02Z"/>
            <polygon class="cls-9" points="87.36 82.33 84.4 84.96 82.14 80.11 87.36 82.33"/>
            <polygon class="cls-9" points="84.4 84.96 84.34 85.12 76.81 86.05 73.55 81.16 73.73 80.88 82.14 80.11 84.4 84.96"/>
            <polygon class="cls-9" points="73.56 81.15 76.82 86.05 70.66 91.08 73.56 81.15"/>
            <polygon class="cls-9" points="73.55 81.16 70.75 90.76 70.65 91.08 59.84 99.22 65.56 87.28 73.55 81.16"/>
            <polygon class="cls-9" points="73.55 81.16 65.56 87.28 58.65 90.56 63.4 84.52 63.78 84.04 69.2 82.45 69.32 82.41 73.55 81.16"/>
            <polygon class="cls-9" points="65.56 87.28 58.59 90.64 58.65 90.58 58.65 90.56 65.56 87.28"/>
            <polygon class="cls-9" points="69.2 82.45 63.78 84.04 63.8 84.02 69.2 82.45"/>
            <polygon class="cls-9" points="63.78 84.04 63.4 84.52 58.65 90.56 58.65 90.58 58.37 90.7 57.73 90.88 57.71 90.88 57.71 90.9 57.69 90.9 51.65 92.59 53.16 91.4 53.2 91.38 60.87 85.43 60.91 85.41 62.01 84.56 62.05 84.54 63.78 84.04"/>
            <polygon class="cls-9" points="58.65 90.58 58.59 90.64 58.37 90.7 58.65 90.58"/>
            <polygon class="cls-9" points="63.8 84.02 63.78 84.04 62.05 84.54 63.8 84.02"/>
            <polygon class="cls-9" points="68.86 96.74 68.84 96.76 68.09 96.96 68.86 96.74"/>
            <polygon class="cls-9" points="69.94 96.44 69.94 96.46 69.74 96.5 69.94 96.44"/>
            <polygon class="cls-9" points="70.81 96.2 70.81 96.22 70.79 96.22 69.98 96.44 69.98 96.42 70.81 96.2"/>
            <polygon class="cls-9" points="84.34 85.12 83.27 88.89 82.95 90.02 82.93 90.02 60 99.18 59.96 99.2 59.84 99.22 70.75 90.76 76.81 86.05 84.34 85.12"/>
            <polygon class="cls-9" points="65.56 87.28 59.84 99.22 57.79 101.29 57.1 101.99 55.97 103.1 54.71 102.17 53.74 101.47 53.52 101.29 54.59 99.09 54.5 99.16 56.01 95.85 56.26 95.31 56.26 95.29 56.46 94.85 56.46 94.83 57.73 92.07 57.81 91.93 57.97 91.57 58.37 90.7 58.59 90.64 65.56 87.28"/>
            <polygon class="cls-9" points="54.59 99.09 53.52 101.29 54.48 99.2 54.5 99.18 54.5 99.16 54.59 99.09"/>
            <polygon class="cls-9" points="65.56 87.28 58.59 90.64 58.37 90.7 58.65 90.58 58.65 90.56 65.56 87.28"/>
            <polygon class="cls-9" points="70.79 96.22 70.07 97.22 69.9 97.48 69.84 97.56 68.84 97.71 67.81 97.89 67.79 97.89 59.96 99.2 60 99.18 68.09 96.96 68.84 96.76 68.86 96.74 69.74 96.5 69.94 96.46 69.94 96.44 69.98 96.44 70.79 96.22"/>
            <polygon class="cls-9" points="70.81 96.2 70.81 96.22 70.79 96.22 69.98 96.44 69.98 96.42 70.81 96.2"/>
            <polygon class="cls-9" points="68.84 97.71 68.84 98.03 67.75 98.57 66.02 99.4 63.8 100.5 63.58 100.6 61.43 101.63 61.41 101.65 59.72 102.46 59.86 100.54 59.96 99.2 67.79 97.89 67.81 97.89 68.84 97.71"/>
            <polygon class="cls-9" points="68.86 96.74 68.84 96.76 68.09 96.96 68.86 96.74"/>
            <polygon class="cls-9" points="69.94 96.44 69.94 96.46 69.74 96.5 69.94 96.44"/>
            <polygon class="cls-9" points="59.96 99.2 59.86 100.54 59.72 102.46 59.36 102.66 56.42 104.33 56.1 104.51 55.69 104.75 52.57 106.52 52.53 105.9 52.37 103.78 53.04 102.3 53.5 101.33 53.52 101.29 53.74 101.47 54.71 102.17 55.97 103.1 57.1 101.99 57.79 101.29 59.84 99.22 59.96 99.2"/>
            <polygon class="cls-9" points="96.68 75.36 96.68 75.38 96.66 75.36 96.68 75.36"/>
            <polygon class="cls-9" points="100.6 77.43 99.07 77.85 98.11 77.44 96.47 75.91 98.43 76.57 100.6 77.43"/>
            <polygon class="cls-9" points="95.51 75.99 95.21 75.38 95.23 75.38 95.51 75.99"/>
            <polygon class="cls-9" points="95.95 76.89 95.93 76.89 95.51 75.99 95.95 76.89"/>
            <polygon class="cls-9" points="96.15 77.31 95.93 76.89 95.95 76.89 96.15 77.31"/>
            <path class="cls-9" d="m100.94,77.14l-.32-.36-.04-.06-1.25-.61-.14-.06-.7-.24-.58-.22h-.04l-1.19-.21-.02-.02-1.31-.24-.36-.22.21.48h.02l.28.61.44.9.19.41,1.06.76.89.64.32.21-.12.14.79-.06v-.18l.92-.92.27-.1.7-.06.26-.24-.3-.36Z"/>
            <path class="cls-9" d="m105.55,80.43l-.16,1.41-.49,1.25-.87,1.23-.38-.06-.25-1.64-1.76-.79-3.9-1.41-.32-.5.87-.87.79-.06v-.18l.92-.92c.17-.1.77-.14.97-.16l.26-.24c-.18-.25-.55-.59-.7-.86l.56.28.81,1.1h0s.11.14.14.18c.37-.09,1.06-.81,1.31-1.07.17.18,1.13,1.19,1.13,1.19l1.05,2.1Z"/>
            <polygon class="cls-9" points="94.88 84.6 94.08 85.43 85.95 90.3 85.87 90.36 84.8 91.2 82.14 92.17 82.63 91.16 82.95 90.02 89.53 87.48 89.55 87.48 93.21 84.74 93.92 85.04 94.88 84.6"/>
            <polygon class="cls-9" points="82.95 90.02 82.63 91.16 82.14 92.17 75.2 94.89 74.09 95.31 70.81 96.2 69.98 96.42 69.98 96.44 69.94 96.44 69.74 96.5 68.86 96.74 68.09 96.96 60 99.18 82.93 90.02 82.95 90.02"/>
            <polygon class="cls-9" points="68.86 96.74 68.84 96.76 68.09 96.96 68.86 96.74"/>
            <polygon class="cls-9" points="69.94 96.44 69.94 96.46 69.74 96.5 69.94 96.44"/>
            <polygon class="cls-9" points="70.81 96.2 70.81 96.22 70.79 96.22 69.98 96.44 69.98 96.42 70.81 96.2"/>
            <polygon class="cls-9" points="84.8 91.2 75.2 94.89 82.14 92.17 84.8 91.2"/>
            <polygon class="cls-9" points="101.47 82.04 98.79 83.33 96.09 84.04 94.88 84.6 93.92 85.04 93.21 84.74 91.93 84.18 91.97 84.18 91.83 84.12 101.47 82.04"/>
            <polygon class="cls-9" points="62.34 48.87 58.35 56.4 46.29 79.19 44.34 75 59.84 51.51 61.01 49.74 62.34 48.87"/>
            <polygon class="cls-8" points="69.2 82.45 63.78 84.04 62.05 84.54 63.8 84.02 69.2 82.45"/>
          </g>
          <g>
            <text class="cls-13" transform="translate(133.83 78.11)"><tspan x="0" y="0">АИС </tspan><tspan class="cls-16" x="91.78" y="0">С</tspan><tspan class="cls-10" x="116.6" y="0">О</tspan><tspan class="cls-6" x="145.99" y="0">К</tspan><tspan class="cls-4" x="170.78" y="0">О</tspan><tspan x="199.47" y="0">Л</tspan></text>
            <text class="cls-12" transform="translate(134.35 109.72)"><tspan x="0" y="0">Ин</tspan><tspan class="cls-14" x="26.12" y="0">т</tspan><tspan class="cls-11" x="33.94" y="0">е</tspan><tspan x="44.52" y="0">лле</tspan><tspan class="cls-17" x="77.31" y="0">к</tspan><tspan x="87.24" y="0">т в ал</tspan><tspan class="cls-2" x="136.37" y="0">г</tspan><tspan class="cls-1" x="144.23" y="0">оритмах, </tspan><tspan class="cls-15" x="0" y="20.91">у</tspan><tspan x="9.46" y="20.91">сп</tspan><tspan class="cls-3" x="31.01" y="20.91">е</tspan><tspan x="41.52" y="20.91">х в прое</tspan><tspan class="cls-11" x="115.95" y="20.91">к</tspan><tspan class="cls-1" x="125.88" y="20.91">тах!</tspan></text>
          </g>
        </g>
      </g>
    </g>
  </g>
</svg>