<svg width="290" height="136" viewBox="0 0 290 136" fill="none" xmlns="http://www.w3.org/2000/svg">
<path d="M58.3704 90.7002L57.9704 91.5702L57.8104 91.9302L57.7304 92.0702L56.4604 94.8302V94.8502L30.9504 117.67L22.4204 118.5L30.1504 111.05L53.5404 93.9402L55.4904 92.5102H55.5104L57.4604 91.0802L57.6904 90.9002H57.7104V90.8802H57.7304L58.3704 90.7002Z" stroke="white" stroke-width="0.5" stroke-miterlimit="1"/>
<path d="M54.5901 99.0903L53.5201 101.29L53.5001 101.33L35.4601 123.43L25.6401 126.47L54.4801 99.2003L54.5001 99.1803V99.1603L54.5901 99.0903Z" stroke="white" stroke-width="0.5" stroke-miterlimit="1"/>
<path d="M55.6904 104.75L45.6904 124.32L33.1304 133.35L52.5304 105.9L52.5704 106.52L55.6904 104.75Z" stroke="white" stroke-width="0.5" stroke-miterlimit="1"/>
<path d="M53.0404 102.3L52.3704 103.78L52.5304 105.9L33.1304 133.35L35.4604 123.43L53.5004 101.33L53.0404 102.3Z" stroke="white" stroke-width="0.5" stroke-miterlimit="1"/>
<path d="M56.4601 94.8501L56.2601 95.2901V95.3101L56.0101 95.8501L54.5001 99.1601V99.1801L54.4801 99.2001L25.6401 126.47L30.9501 117.67L56.4601 94.8501Z" stroke="white" stroke-width="0.5" stroke-miterlimit="1"/>
<path d="M61.41 101.65L53.06 127.36L45.25 135.19L45.27 134.72L59.36 102.66L59.72 102.46L61.41 101.65Z" stroke="white" stroke-width="0.5" stroke-miterlimit="1"/>
<path d="M59.36 102.66L45.27 134.72L45.69 124.32L55.69 104.75L56.1 104.51L56.42 104.33L59.36 102.66Z" stroke="white" stroke-width="0.5" stroke-miterlimit="1"/>
<path d="M47.0402 46.0904H47.0202V46.1104L27.1702 53.0204L22.1802 50.1604L22.8202 48.3504L22.9402 48.4104L45.1702 43.8604L44.8202 43.4004H44.8602L47.0402 46.0904Z" stroke="white" stroke-width="0.5" stroke-miterlimit="1"/>
<path d="M57.6904 90.9004L57.4604 91.0804L55.5104 92.5104H55.4904L47.9204 94.4004L50.5604 92.8904L53.1604 91.4004L51.6504 92.5904L57.6904 90.9004Z" stroke="white" stroke-width="0.5" stroke-miterlimit="1"/>
<path d="M55.4902 92.5103L53.5402 93.9403L31.6602 103.66L31.5802 103.7L23.9502 100.36L50.5602 92.8903L47.9202 94.4003L55.4902 92.5103Z" stroke="white" stroke-width="0.5" stroke-miterlimit="1"/>
<path d="M53.5404 93.9399L30.1504 111.05L21.6304 109.38L31.5804 103.7L31.6604 103.66L53.5404 93.9399Z" stroke="white" stroke-width="0.5" stroke-miterlimit="1"/>
<path d="M63.5801 100.6L54.8901 135.19L53.0601 127.36L61.4101 101.65L61.4301 101.63L63.5801 100.6Z" stroke="white" stroke-width="0.5" stroke-miterlimit="1"/>
<path d="M66.0201 99.4004L61.0301 126.47L54.8901 135.19L63.5801 100.6L63.8001 100.5L66.0201 99.4004Z" stroke="white" stroke-width="0.5" stroke-miterlimit="1"/>
<path d="M67.7503 98.5703L65.5603 131.56L61.0303 126.47L66.0203 99.4003L67.7503 98.5703Z" stroke="white" stroke-width="0.5" stroke-miterlimit="1"/>
<path d="M68.8401 98.0303V124.22L65.5601 131.56L67.7501 98.5703L68.8401 98.0303Z" stroke="white" stroke-width="0.5" stroke-miterlimit="1"/>
<path d="M74.3703 127.03L68.8403 124.22V97.71L69.8403 97.56L69.9003 97.48L74.3703 127.03Z" stroke="white" stroke-width="0.5" stroke-miterlimit="1"/>
<path d="M69.9402 96.4399V96.4599L69.7402 96.4999L69.9402 96.4399Z" stroke="white" stroke-width="0.5" stroke-miterlimit="1"/>
<path d="M75.6804 119.89L74.3704 127.03L69.9004 97.4802L70.0704 97.2202L70.7904 96.2202H70.8104L75.6804 119.89Z" stroke="white" stroke-width="0.5" stroke-miterlimit="1"/>
<path d="M69.9402 96.4399V96.4599L69.7402 96.4999L69.9402 96.4399Z" stroke="white" stroke-width="0.5" stroke-miterlimit="1"/>
<path d="M70.81 96.2002V96.2202H70.79L69.98 96.4402V96.4202L70.81 96.2002Z" stroke="white" stroke-width="0.5" stroke-miterlimit="1"/>
<path d="M45.1702 43.8603L22.9402 48.4103L22.8202 48.3503L15.7202 44.1403L16.8202 42.4303L18.0102 43.4003L43.6402 42.0103H43.6602L44.8202 43.4003L45.1702 43.8603Z" stroke="white" stroke-width="0.5" stroke-miterlimit="1"/>
<path d="M43.68 42.0103L44.82 43.4003L43.66 42.0103H43.64L42.97 41.1803L42.71 40.8203L43.68 42.0103Z" stroke="white" stroke-width="0.5" stroke-miterlimit="1"/>
<path d="M45.1903 43.8604H45.1703L44.8203 43.4004L45.1903 43.8604Z" stroke="white" stroke-width="0.5" stroke-miterlimit="1"/>
<path d="M40.6603 38.0002L39.5503 36.4502L40.7803 38.0402L40.6803 38.0202L40.6603 38.0002Z" stroke="white" stroke-width="0.5" stroke-miterlimit="1"/>
<path d="M43.6401 42.0102L18.0101 43.4002L16.8201 42.4302L8.31006 35.4702L13.1401 35.2002L16.5201 38.3202L42.7101 40.8202L42.9701 41.1802L43.6401 42.0102Z" stroke="white" stroke-width="0.5" stroke-miterlimit="1"/>
<path d="M43.68 42.0103H43.64L42.97 41.1803L42.71 40.8203L43.68 42.0103Z" stroke="white" stroke-width="0.5" stroke-miterlimit="1"/>
<path d="M115.56 45.31L115.05 45.77L110.83 34.52L113.56 37.6L115.56 45.31Z" stroke="white" stroke-width="0.5" stroke-miterlimit="1"/>
<path d="M115.05 45.77L114.67 46.09L113.93 46.6L113.32 47.04L110.22 44.99L110.24 44.75L110.83 34.52L115.05 45.77Z" stroke="white" stroke-width="0.5" stroke-miterlimit="1"/>
<path d="M108.84 58.4302L98.4 71.2802H98.37V71.3102L95.46 70.9502L95.49 70.9102L108.84 58.4302Z" stroke="white" stroke-width="0.5" stroke-miterlimit="1"/>
<path d="M122.3 45.5303L119.14 51.3903L109.92 57.2103L108.84 58.4303L95.4901 70.9103L95.4601 70.9503L94.6001 70.5703L94.6201 70.5503L118.01 48.0903L122.3 45.5303Z" stroke="white" stroke-width="0.5" stroke-miterlimit="1"/>
<path d="M96.8801 63.5L96.8001 63.73L94.6001 70.55V70.57H92.1401V70.55H92.1501L96.8801 63.5Z" stroke="white" stroke-width="0.5" stroke-miterlimit="1"/>
<path d="M97.1203 63.27V63.3L96.8802 63.5L92.1503 70.55H92.1403V70.57L90.0103 69.99H89.9902L88.6302 69.62L88.4003 69.56L88.2803 69.53L86.0103 68.94L97.1203 63.27Z" stroke="white" stroke-width="0.5" stroke-miterlimit="1"/>
<path d="M97.1204 63.3003L96.8004 63.7303L92.1504 70.5503L96.8804 63.4903L97.1204 63.3003Z" stroke="white" stroke-width="0.5" stroke-miterlimit="1"/>
<path d="M108.98 50.0601L106.72 51.6501L106.7 51.6701L100.4 56.0801L99.7603 55.0701L102.45 53.6001L102.47 53.5801L108.93 50.0601H108.98Z" stroke="white" stroke-width="0.5" stroke-miterlimit="1"/>
<path d="M109.24 49.8804L108.98 50.0604H108.93L109.24 49.8804Z" stroke="white" stroke-width="0.5" stroke-miterlimit="1"/>
<path d="M108.93 50.0602L102.47 53.5802L102.45 53.6002L103.36 49.6602L108.93 50.0602Z" stroke="white" stroke-width="0.5" stroke-miterlimit="1"/>
<path d="M110.02 49.35L109.94 49.4L109.24 49.88L108.98 50.06H108.93L103.36 49.66L105.71 48.79L110.02 49.35Z" stroke="white" stroke-width="0.5" stroke-miterlimit="1"/>
<path d="M122.3 45.5303L118.01 48.0903L94.6201 70.5503H94.6001L96.8001 63.7303L97.1201 63.3003V63.2803L98.4301 62.1003L112.24 49.7403L113.71 48.4303L114.33 48.1903V48.1703L118.4 46.5603L118.66 46.4603L122.3 45.5303Z" stroke="white" stroke-width="0.5" stroke-miterlimit="1"/>
<path d="M113.32 47.0403L110.02 49.3503L109.94 49.4003L105.71 48.7903L107.26 43.2803L110.24 44.7503L110.22 44.9903L113.32 47.0403Z" stroke="white" stroke-width="0.5" stroke-miterlimit="1"/>
<path d="M113.71 48.4302L112.24 49.7402H112.2L113.63 48.4502L113.71 48.4302Z" stroke="white" stroke-width="0.5" stroke-miterlimit="1"/>
<path d="M114.33 48.1704V48.1904L113.71 48.4304V48.4104L114.33 48.1704Z" stroke="white" stroke-width="0.5" stroke-miterlimit="1"/>
<path d="M115.64 45.2303L115.56 45.3103L113.56 37.6003L115.16 28.3403L115.64 45.2303Z" stroke="white" stroke-width="0.5" stroke-miterlimit="1"/>
<path d="M116.99 44.04V44.1L116.95 44.12L116.99 44.04Z" stroke="white" stroke-width="0.5" stroke-miterlimit="1"/>
<path d="M116.38 35.1401L116.36 44.2401L116.42 44.2201L116.32 44.6601L115.64 45.2401L115.16 28.3501C115.16 28.3501 117.04 33.7101 117.03 33.7401L116.37 35.1501L116.38 35.1401Z" stroke="white" stroke-width="0.5" stroke-miterlimit="1"/>
<path d="M120.63 25.8403L117.19 40.6203V40.6603L116.42 44.2203L116.36 44.2403L116.38 35.1403L117.03 33.7303V33.7103L120.63 25.8403Z" stroke="white" stroke-width="0.5" stroke-miterlimit="1"/>
<path d="M121.23 33.4501C121.06 33.8601 116.63 44.3601 116.64 44.4001L116.32 44.6601C116.35 44.5701 117.14 40.9001 117.19 40.6701V40.6301L120.63 25.8501L121.23 33.4601V33.4501Z" stroke="white" stroke-width="0.5" stroke-miterlimit="1"/>
<path d="M124.64 29.3501C123.03 32.4601 118.47 41.1401 116.95 44.1201H116.93L116.63 44.4001C116.72 44.1001 121.01 33.9801 121.22 33.4501L124.64 29.3601V29.3501Z" stroke="white" stroke-width="0.5" stroke-miterlimit="1"/>
<path d="M124.64 29.3503L123.27 37.1003L120.69 41.1103L120.85 40.7503C120.02 41.4603 117.76 43.3803 116.99 44.0903V44.0303C118.47 41.1503 123.09 32.3503 124.64 29.3403V29.3503Z" stroke="white" stroke-width="0.5" stroke-miterlimit="1"/>
<path d="M116.99 44.04V44.1L116.95 44.12L116.99 44.04Z" stroke="white" stroke-width="0.5" stroke-miterlimit="1"/>
<path d="M115.05 45.7703C115.66 45.2003 116.5 44.5403 117.11 43.9703C117.82 43.3903 120.11 41.3803 120.86 40.7603C120.71 41.0403 118.56 46.2303 118.42 46.5603C118 46.7203 114.02 48.3003 113.73 48.4103V48.4303L113.65 48.4503C111.79 50.1303 99.0204 61.5903 97.1404 63.2703L86.0304 68.9303H85.9904L83.1304 68.1703C87.6504 65.0103 102.46 54.6403 106.72 51.6603L106.74 51.6403C109.27 49.8403 112.59 47.6303 115.07 45.7603L115.05 45.7703Z" stroke="white" stroke-width="0.5" stroke-miterlimit="1"/>
<path d="M114.33 48.1704V48.1904L113.71 48.4304V48.4104L114.33 48.1704Z" stroke="white" stroke-width="0.5" stroke-miterlimit="1"/>
<path d="M113.71 48.4302L112.24 49.7402L98.4302 62.1002L112.2 49.7402L113.63 48.4502L113.71 48.4302Z" stroke="white" stroke-width="0.5" stroke-miterlimit="1"/>
<path d="M94.6001 70.5503H94.6201L94.6001 70.5703V70.5503Z" stroke="white" stroke-width="0.5" stroke-miterlimit="1"/>
<path d="M97.1203 63.3003L96.8003 63.7303L96.8803 63.4903L97.1203 63.3003Z" stroke="white" stroke-width="0.5" stroke-miterlimit="1"/>
<path d="M113.71 48.4302L112.24 49.7402L98.4302 62.1002L112.2 49.7402L113.63 48.4502L113.71 48.4302Z" stroke="white" stroke-width="0.5" stroke-miterlimit="1"/>
<path d="M114.33 48.1704V48.1904L113.71 48.4304V48.4104L114.33 48.1704Z" stroke="white" stroke-width="0.5" stroke-miterlimit="1"/>
<path d="M98.3701 71.2803V71.3103L95.4601 70.9503L94.6001 70.5703H92.1401V70.5503H94.6201L95.4601 70.9103H95.4901L98.3701 71.2803Z" stroke="white" stroke-width="0.5" stroke-miterlimit="1"/>
<path d="M96.6802 75.3604V75.3803L96.6602 75.3604H96.6802Z" stroke="white" stroke-width="0.5" stroke-miterlimit="1"/>
<path d="M88.28 69.5301L88.1 72.4501V72.4801L81.53 69.1401L81.52 69.1301L66.96 47.0601L81.6 67.3501L83.11 68.1901L85.97 68.9401H86.01L88.28 69.5301Z" stroke="white" stroke-width="0.5" stroke-miterlimit="1"/>
<path d="M64.8701 42.1702L58.3001 33.2402L48.3901 24.2402L64.8701 42.1702Z" stroke="white" stroke-width="0.5" stroke-miterlimit="1"/>
<path d="M64.8701 42.17L64.3301 42.37L64.1901 42.23L49.8601 29.67L49.2901 29.16L48.3901 24.25L64.8701 42.17Z" stroke="white" stroke-width="0.5" stroke-miterlimit="1"/>
<path d="M46.0802 26.9102L24.4502 2.2002L28.0102 13.1602L44.2202 29.5902L46.0802 26.9102Z" stroke="white" stroke-width="0.5" stroke-miterlimit="1"/>
<path d="M44.2203 29.5902L42.2503 32.4702L21.1703 13.0802L14.5303 0.180176L27.9103 12.8602L44.2203 29.5902Z" stroke="white" stroke-width="0.5" stroke-miterlimit="1"/>
<path d="M42.25 32.4704L41.38 33.7504L41.16 34.1004H41.14L40.9 33.9204L40.49 33.6504L15.17 16.2604L6.22998 2.63037L21.17 13.0804L42.25 32.4704Z" stroke="white" stroke-width="0.5" stroke-miterlimit="1"/>
<path d="M42.2502 32.4702L41.4002 33.7502L41.1602 34.1002L41.3802 33.7502L42.2502 32.4702Z" stroke="white" stroke-width="0.5" stroke-miterlimit="1"/>
<path d="M41.0204 34.2801L40.1904 35.5101L36.4704 33.8601L10.8804 22.5801L9.50039 20.7101L0.400391 8.3501L15.1704 16.2601L40.4904 33.6501L40.9004 33.9201L41.0204 34.2801Z" stroke="white" stroke-width="0.5" stroke-miterlimit="1"/>
<path d="M41.1604 34.1004L41.0404 34.2804H41.0204L40.9004 33.9204L41.1404 34.1004H41.1604Z" stroke="white" stroke-width="0.5" stroke-miterlimit="1"/>
<path d="M47.8201 47.0604L25.6001 56.5204L27.1701 53.0204L47.0201 46.1104L47.8201 47.0604Z" stroke="white" stroke-width="0.5" stroke-miterlimit="1"/>
<path d="M49.6903 47.9901L29.6104 58.1901L25.6104 56.5101L47.8104 47.0601L49.6903 47.9901Z" stroke="white" stroke-width="0.5" stroke-miterlimit="1"/>
<path d="M29.1201 60.4902L29.6101 58.1902L49.6901 47.9902L52.5101 48.4102L29.1201 60.4902Z" stroke="white" stroke-width="0.5" stroke-miterlimit="1"/>
<path d="M52.5101 48.4102L51.8701 49.8002L32.6201 62.0402L29.1201 60.4902L52.5101 48.4102Z" stroke="white" stroke-width="0.5" stroke-miterlimit="1"/>
<path d="M51.8704 49.8003L50.6404 52.5603L50.4204 53.0203L35.2204 65.7803L32.3804 64.8903V62.2403L51.8704 49.8003Z" stroke="white" stroke-width="0.5" stroke-miterlimit="1"/>
<path d="M47.8202 58.37L54.3202 54.11L53.3002 55.25H53.2802L38.7602 69.18L35.4602 68.14L35.2202 65.78L50.4202 53.02L47.8202 58.37Z" stroke="white" stroke-width="0.5" stroke-miterlimit="1"/>
<path d="M56.8601 52.4502L56.6401 52.7602L56.5801 52.8002L56.8601 52.4502Z" stroke="white" stroke-width="0.5" stroke-miterlimit="1"/>
<path d="M61.0101 49.7402L59.8401 51.5102L44.3401 75.0002L41.6201 74.1902V71.3002L55.8701 53.7202L56.5801 52.8002L56.6401 52.7602L56.8601 52.4502L60.3601 50.1602L60.4201 50.1202L61.0101 49.7402Z" stroke="white" stroke-width="0.5" stroke-miterlimit="1"/>
<path d="M56.8601 52.4502L56.6401 52.7602L56.5801 52.8002L56.8601 52.4502Z" stroke="white" stroke-width="0.5" stroke-miterlimit="1"/>
<path d="M61.0504 49.6802L61.0104 49.7402L60.4204 50.1202L61.0504 49.6802Z" stroke="white" stroke-width="0.5" stroke-miterlimit="1"/>
<path d="M56.8603 52.4502L56.5803 52.8002L55.8703 53.7202L41.6203 71.3002L39.1703 70.8902L38.7603 69.1802L53.2803 55.2502H53.3003L54.3203 54.1102L56.8603 52.4502Z" stroke="white" stroke-width="0.5" stroke-miterlimit="1"/>
<path d="M56.8601 52.4502L56.6401 52.7602L56.5801 52.8002L56.8601 52.4502Z" stroke="white" stroke-width="0.5" stroke-miterlimit="1"/>
<path d="M47.0203 46.09H47.0403L44.8603 43.4H44.8203L43.6803 42.01L42.7103 40.82L40.6803 38.02L40.7803 38.04L39.5503 36.45L40.1903 35.51L41.0203 34.28H41.0403L41.1603 34.1L41.4003 33.75L46.8803 37.16L47.8203 47.06L47.0203 46.11V46.09Z" stroke="white" stroke-width="0.5" stroke-miterlimit="1"/>
<path d="M40.6803 38.0202V38.0002H40.6603L39.5503 36.4502L40.7803 38.0402L40.6803 38.0202Z" stroke="white" stroke-width="0.5" stroke-miterlimit="1"/>
<path d="M41.16 34.1001L41.04 34.2801H41.02L41.14 34.1001H41.16Z" stroke="white" stroke-width="0.5" stroke-miterlimit="1"/>
<path d="M41.4002 33.75L41.1602 34.1L41.3802 33.75H41.4002Z" stroke="white" stroke-width="0.5" stroke-miterlimit="1"/>
<path d="M44.82 43.4003L43.66 42.0103H43.64L42.97 41.1803L42.71 40.8203L43.68 42.0103L44.82 43.4003Z" stroke="white" stroke-width="0.5" stroke-miterlimit="1"/>
<path d="M46.8804 37.1603L41.4004 33.7503L42.2504 32.4703L44.2204 29.5903L46.0504 26.8903L46.2904 26.5303L46.8804 37.1603Z" stroke="white" stroke-width="0.5" stroke-miterlimit="1"/>
<path d="M47.0403 46.0904H47.0203L45.1903 43.8604H45.1703L44.8203 43.4004H44.8603L47.0403 46.0904Z" stroke="white" stroke-width="0.5" stroke-miterlimit="1"/>
<path d="M66.26 46.1103L54.12 45.8303L52.05 35.9903L46.88 37.1603L46.29 26.5303L49.29 29.1603L49.86 29.6703L64.19 42.2303L64.33 42.3703L65.03 43.0503L66.26 46.1103Z" stroke="white" stroke-width="0.5" stroke-miterlimit="1"/>
<path d="M52.0504 35.9902L47.8204 47.0602L46.8804 37.1602L52.0504 35.9902Z" stroke="white" stroke-width="0.5" stroke-miterlimit="1"/>
<path d="M54.1203 45.8302L48.3303 47.3202H48.3103L47.8203 47.0602L52.0503 35.9902L54.1203 45.8302Z" stroke="white" stroke-width="0.5" stroke-miterlimit="1"/>
<g style="mix-blend-mode:lighten">
<path d="M46.8804 37.1603L41.4004 33.7503H41.3804L42.2504 32.4703L44.2204 29.5903L46.0504 26.8903L46.2904 26.5303L46.8804 37.1603Z" stroke="white" stroke-width="0.5" stroke-miterlimit="1"/>
</g>
<path d="M66.2601 46.1101L66.2401 46.1301L62.3401 48.8701L60.4001 48.1501L54.1201 45.8301L66.2601 46.1101Z" stroke="white" stroke-width="0.5" stroke-miterlimit="1"/>
<path d="M60.4001 48.1501L52.5101 48.4101L49.6901 47.9901L48.3301 47.3201L54.1201 45.8301L60.4001 48.1501Z" stroke="white" stroke-width="0.5" stroke-miterlimit="1"/>
<path d="M62.3403 48.8701L61.0103 49.7401L61.0503 49.6801L62.3403 48.8701Z" stroke="white" stroke-width="0.5" stroke-miterlimit="1"/>
<path d="M62.34 48.8701L62.13 53.0001L50 80.1701L46.29 79.1901L58.35 56.4001L62.34 48.8701Z" stroke="white" stroke-width="0.5" stroke-miterlimit="1"/>
<path d="M62.04 54.69L52.11 83.46L50 80.18L62.13 53L62.04 54.69Z" stroke="white" stroke-width="0.5" stroke-miterlimit="1"/>
<path d="M62.0704 67.3699V77.2099L55.0504 84.1399L54.8904 84.2799L53.3404 85.6099L52.1104 83.4699L62.0504 54.6899L62.0704 67.3699Z" stroke="white" stroke-width="0.5" stroke-miterlimit="1"/>
<path d="M42.7104 40.8204L16.5204 38.3204L13.1404 35.2004L3.90039 26.6704L9.48039 27.6104L10.3604 28.5604L28.8204 34.3004L39.7704 37.7204L40.2504 37.8604L40.6604 38.0004L40.6804 38.0204L42.7104 40.8204Z" stroke="white" stroke-width="0.5" stroke-miterlimit="1"/>
<path d="M40.6602 38.0002L40.2502 37.8602L39.7702 37.7202L28.8202 34.3002L10.3602 28.5602L9.48018 27.6102L0.180176 17.4702L9.50018 20.7102L10.8802 22.5802L36.4702 33.8602L40.1902 35.5102L39.5502 36.4502L40.6602 38.0002Z" stroke="white" stroke-width="0.5" stroke-miterlimit="1"/>
<path d="M40.6803 38.0202V38.0002H40.6603L39.5503 36.4502L40.7803 38.0402L40.6803 38.0202Z" stroke="white" stroke-width="0.5" stroke-miterlimit="1"/>
<path d="M62.3403 48.8704L61.0503 49.6804L60.4203 50.1204L60.3603 50.1604L56.8603 52.4504L54.3203 54.1104L47.8203 58.3704L50.4203 53.0204L50.6403 52.5604L51.8703 49.8004L52.5103 48.4104L60.4003 48.1504L62.3403 48.8704Z" stroke="white" stroke-width="0.5" stroke-miterlimit="1"/>
<path d="M63.2001 81.84L63.1201 81.9L63.1001 81.92H63.0801L54.8901 84.28L55.0501 84.14L62.0701 77.21L63.2001 81.84Z" stroke="white" stroke-width="0.5" stroke-miterlimit="1"/>
<path d="M63.2001 81.8403V81.8803L63.1201 81.9003L63.2001 81.8403Z" stroke="white" stroke-width="0.5" stroke-miterlimit="1"/>
<path d="M66.24 46.1201L67.27 59.1601L62.04 54.6901L62.35 48.8701L66.24 46.1201Z" stroke="white" stroke-width="0.5" stroke-miterlimit="1"/>
<path d="M62.04 54.6899L67.27 59.1599L63.93 72.1999L62.04 54.6899Z" stroke="white" stroke-width="0.5" stroke-miterlimit="1"/>
<path d="M81.5203 69.1401L63.6003 82.6901L63.0803 81.9201H63.1003L63.1203 81.9001L63.2003 81.8801V81.8401L62.0703 77.2101V67.3701L63.9303 72.2001L64.3903 73.4101L81.5203 69.1401Z" stroke="white" stroke-width="0.5" stroke-miterlimit="1"/>
<path d="M67.2703 59.1599L63.9303 72.1999L62.0703 67.3699L62.0503 54.6899L67.2703 59.1599Z" stroke="white" stroke-width="0.5" stroke-miterlimit="1"/>
<path d="M81.5202 69.1402L64.3902 73.4102L63.9302 72.2002L67.2702 59.1602L81.5202 69.1402Z" stroke="white" stroke-width="0.5" stroke-miterlimit="1"/>
<path d="M81.5202 69.1404L67.2702 59.1604L66.2402 46.1304L66.9502 47.0604L81.5202 69.1404Z" stroke="white" stroke-width="0.5" stroke-miterlimit="1"/>
<path d="M104.87 75.5603C104.26 75.1003 103.31 73.7603 102.86 73.1403C102.88 73.2103 103.1 73.8103 103.26 74.2903C103.14 74.1603 102.46 73.2203 102.28 73.2003C102.28 73.1803 102.27 73.1803 102.27 73.1803L100.12 71.7903C100.18 71.8603 100.98 72.8103 101.02 72.8403C100.38 72.4703 99.3001 71.5403 98.8501 70.9603L99.3701 71.9103L98.4001 71.3003H98.3801V71.3203C97.6901 71.2203 95.1501 71.0403 94.6001 70.5903C92.6101 70.8303 90.1601 70.0803 88.2801 69.5503L88.1001 72.4703C89.7201 72.8903 95.1901 75.1203 96.6901 75.3703V75.3903C97.9901 75.5303 99.4401 76.1303 100.59 76.7403L100.55 76.6603L101.11 76.9403L101.92 78.0403C101.92 78.0403 102.03 78.1803 102.06 78.2203C102.43 78.1303 103.12 77.4103 103.37 77.1503C103.54 77.3303 104.32 78.1503 104.5 78.3403L104.6 78.6403L105.18 76.4903L104.88 75.5803L104.87 75.5603Z" stroke="white" stroke-width="0.5" stroke-miterlimit="1"/>
<path d="M63.2001 81.8403V81.8803L63.1201 81.9003L63.2001 81.8403Z" stroke="white" stroke-width="0.5" stroke-miterlimit="1"/>
<path d="M81.5203 69.1401L73.7303 80.8801L73.5503 81.1601L69.3203 82.4101L69.2003 82.4501L63.8003 84.0201L62.0503 84.5401L62.0103 84.5601L61.0903 84.8401L63.4403 82.8101L63.6003 82.6901L81.5203 69.1401Z" stroke="white" stroke-width="0.5" stroke-miterlimit="1"/>
<path d="M69.2003 82.4502L63.7803 84.0402L62.0503 84.5402L63.8003 84.0202L69.2003 82.4502Z" stroke="white" stroke-width="0.5" stroke-miterlimit="1"/>
<path d="M83.45 75.5401L82.14 80.1101L73.73 80.8801L81.52 69.1401L83.45 75.5401Z" stroke="white" stroke-width="0.5" stroke-miterlimit="1"/>
<path d="M88.1 72.4801L86.71 78.3401L81.52 69.1401L88.1 72.4801Z" stroke="white" stroke-width="0.5" stroke-miterlimit="1"/>
<path d="M87.0403 81.6604L86.7203 78.3404L81.5303 69.1504L83.4603 75.5304L87.0403 81.6604Z" stroke="white" stroke-width="0.5" stroke-miterlimit="1"/>
<path d="M92.2901 79.15L89.1501 75.64L88.1201 72.5L91.5801 76.63L92.2901 79.15Z" stroke="white" stroke-width="0.5" stroke-miterlimit="1"/>
<path d="M92.41 80.05L87.36 82.02L87.05 81.66L86.71 78.34L88.1 72.48L88.12 72.5L89.15 75.64L92.29 79.15L92.41 80.05Z" stroke="white" stroke-width="0.5" stroke-miterlimit="1"/>
<path d="M95.0001 74.9002L91.5701 76.6302L88.1201 72.5002L88.1001 72.4802V72.4502L94.6001 74.6602L95.0001 74.9002Z" stroke="white" stroke-width="0.5" stroke-miterlimit="1"/>
<path d="M98.4101 78.9204L98.2901 79.0504L97.4201 79.9304L92.4101 80.0504L92.2901 79.1504L91.5801 76.6304L94.9901 74.9004L95.2101 75.3804H95.2301L95.5101 75.9904L95.9501 76.8904L96.1501 77.3104L97.2001 78.0604L98.0901 78.7004L98.4101 78.9204Z" stroke="white" stroke-width="0.5" stroke-miterlimit="1"/>
<path d="M101.63 81.8402L101.57 82.0202L101.47 82.0402L101.51 82.0202L99.3704 82.4302L93.0704 83.5302L91.9104 83.6802L88.7703 82.4702L88.2403 82.4302H88.1804L88.0203 82.5902L87.3604 82.3302V82.0202L92.4104 80.0502L97.4203 79.9302L97.7403 80.4302L101.63 81.8402Z" stroke="white" stroke-width="0.5" stroke-miterlimit="1"/>
<path d="M101.63 81.8402L97.7402 80.4302L99.2302 80.9002L100.12 81.2402L101.63 81.8402Z" stroke="white" stroke-width="0.5" stroke-miterlimit="1"/>
<path d="M87.3601 82.02V82.33L82.1401 80.11L83.4501 75.54L87.0501 81.66L87.3601 82.02Z" stroke="white" stroke-width="0.5" stroke-miterlimit="1"/>
<path d="M93.2102 84.7402L89.5502 87.4802H89.5302L82.9502 90.0202L83.2702 88.8902L84.4002 84.9602L91.9102 84.1802H91.9302L93.2102 84.7402Z" stroke="white" stroke-width="0.5" stroke-miterlimit="1"/>
<path d="M101.47 82.04L91.8304 84.13L91.9704 84.19C91.8904 84.19 84.4804 84.96 84.4004 84.96L87.3604 82.34L88.0204 82.6L88.1804 82.44C88.1804 82.44 88.7404 82.48 88.7804 82.48L91.9204 83.69C94.1304 83.39 99.3604 82.45 101.52 82.02L101.48 82.04H101.47Z" stroke="white" stroke-width="0.5" stroke-miterlimit="1"/>
<path d="M87.3601 82.3304L84.4001 84.9604L82.1401 80.1104L87.3601 82.3304Z" stroke="white" stroke-width="0.5" stroke-miterlimit="1"/>
<path d="M84.4003 84.9604L84.3403 85.1204L76.8103 86.0504L73.5503 81.1604L73.7303 80.8803L82.1403 80.1104L84.4003 84.9604Z" stroke="white" stroke-width="0.5" stroke-miterlimit="1"/>
<path d="M73.5602 81.1504L76.8202 86.0504L70.6602 91.0804L73.5602 81.1504Z" stroke="white" stroke-width="0.5" stroke-miterlimit="1"/>
<path d="M73.5503 81.1602L70.7503 90.7602L70.6503 91.0802L59.8403 99.2202L65.5603 87.2802L73.5503 81.1602Z" stroke="white" stroke-width="0.5" stroke-miterlimit="1"/>
<path d="M73.5504 81.1602L65.5604 87.2802L58.6504 90.5602L63.4004 84.5201L63.7804 84.0402L69.2004 82.4501L69.3204 82.4102L73.5504 81.1602Z" stroke="white" stroke-width="0.5" stroke-miterlimit="1"/>
<path d="M65.5603 87.2803L58.5903 90.6403L58.6503 90.5803V90.5603L65.5603 87.2803Z" stroke="white" stroke-width="0.5" stroke-miterlimit="1"/>
<path d="M69.2003 82.4502L63.7803 84.0402L63.8003 84.0202L69.2003 82.4502Z" stroke="white" stroke-width="0.5" stroke-miterlimit="1"/>
<path d="M63.7804 84.04L63.4004 84.52L58.6504 90.56V90.58L58.3704 90.7L57.7304 90.88H57.7104V90.9H57.6904L51.6504 92.59L53.1604 91.4L53.2004 91.38L60.8704 85.43L60.9104 85.41L62.0104 84.56L62.0504 84.54L63.7804 84.04Z" stroke="white" stroke-width="0.5" stroke-miterlimit="1"/>
<path d="M58.6501 90.5801L58.5901 90.6401L58.3701 90.7001L58.6501 90.5801Z" stroke="white" stroke-width="0.5" stroke-miterlimit="1"/>
<path d="M63.8003 84.02L63.7803 84.04L62.0503 84.54L63.8003 84.02Z" stroke="white" stroke-width="0.5" stroke-miterlimit="1"/>
<path d="M68.8603 96.7402L68.8403 96.7602L68.0903 96.9602L68.8603 96.7402Z" stroke="white" stroke-width="0.5" stroke-miterlimit="1"/>
<path d="M69.9402 96.4399V96.4599L69.7402 96.4999L69.9402 96.4399Z" stroke="white" stroke-width="0.5" stroke-miterlimit="1"/>
<path d="M70.81 96.2002V96.2202H70.79L69.98 96.4402V96.4202L70.81 96.2002Z" stroke="white" stroke-width="0.5" stroke-miterlimit="1"/>
<path d="M84.3403 85.1201L83.2703 88.8901L82.9503 90.0201H82.9303L60.0003 99.1801L59.9603 99.2001L59.8403 99.2201L70.7503 90.7601L76.8103 86.0501L84.3403 85.1201Z" stroke="white" stroke-width="0.5" stroke-miterlimit="1"/>
<path d="M65.56 87.2803L59.84 99.2203L57.79 101.29L57.1 101.99L55.97 103.1L54.71 102.17L53.74 101.47L53.52 101.29L54.59 99.0903L54.5 99.1603L56.01 95.8503L56.26 95.3103V95.2903L56.46 94.8503V94.8303L57.73 92.0703L57.81 91.9303L57.97 91.5703L58.37 90.7003L58.59 90.6403L65.56 87.2803Z" stroke="white" stroke-width="0.5" stroke-miterlimit="1"/>
<path d="M54.59 99.0903L53.52 101.29L54.48 99.2003L54.5 99.1803V99.1603L54.59 99.0903Z" stroke="white" stroke-width="0.5" stroke-miterlimit="1"/>
<path d="M65.5601 87.2803L58.5901 90.6403L58.3701 90.7003L58.6501 90.5803V90.5603L65.5601 87.2803Z" stroke="white" stroke-width="0.5" stroke-miterlimit="1"/>
<path d="M70.79 96.2202L70.07 97.2202L69.9 97.4802L69.84 97.5602L68.84 97.7102L67.81 97.8902H67.79L59.96 99.2002L60 99.1802L68.09 96.9602L68.84 96.7602L68.86 96.7402L69.74 96.5002L69.94 96.4602V96.4402H69.98L70.79 96.2202Z" stroke="white" stroke-width="0.5" stroke-miterlimit="1"/>
<path d="M70.81 96.2002V96.2202H70.79L69.98 96.4402V96.4202L70.81 96.2002Z" stroke="white" stroke-width="0.5" stroke-miterlimit="1"/>
<path d="M68.8402 97.71V98.03L67.7502 98.57L66.0202 99.4L63.8002 100.5L63.5802 100.6L61.4302 101.63L61.4102 101.65L59.7202 102.46L59.8602 100.54L59.9602 99.2L67.7902 97.89H67.8102L68.8402 97.71Z" stroke="white" stroke-width="0.5" stroke-miterlimit="1"/>
<path d="M68.8603 96.7402L68.8403 96.7602L68.0903 96.9602L68.8603 96.7402Z" stroke="white" stroke-width="0.5" stroke-miterlimit="1"/>
<path d="M69.9402 96.4399V96.4599L69.7402 96.4999L69.9402 96.4399Z" stroke="white" stroke-width="0.5" stroke-miterlimit="1"/>
<path d="M59.9601 99.2002L59.8601 100.54L59.7201 102.46L59.3601 102.66L56.4201 104.33L56.1001 104.51L55.6901 104.75L52.5701 106.52L52.5301 105.9L52.3701 103.78L53.0401 102.3L53.5001 101.33L53.5201 101.29L53.7401 101.47L54.7101 102.17L55.9701 103.1L57.1001 101.99L57.7901 101.29L59.8401 99.2202L59.9601 99.2002Z" stroke="white" stroke-width="0.5" stroke-miterlimit="1"/>
<path d="M96.6802 75.3604V75.3803L96.6602 75.3604H96.6802Z" stroke="white" stroke-width="0.5" stroke-miterlimit="1"/>
<path d="M100.6 77.4302L99.0702 77.8502L98.1102 77.4402L96.4702 75.9102L98.4302 76.5702L100.6 77.4302Z" stroke="white" stroke-width="0.5" stroke-miterlimit="1"/>
<path d="M95.51 75.9904L95.21 75.3804H95.23L95.51 75.9904Z" stroke="white" stroke-width="0.5" stroke-miterlimit="1"/>
<path d="M95.9502 76.8902H95.9303L95.5103 75.9902L95.9502 76.8902Z" stroke="white" stroke-width="0.5" stroke-miterlimit="1"/>
<path d="M96.1502 77.3101L95.9302 76.8901H95.9502L96.1502 77.3101Z" stroke="white" stroke-width="0.5" stroke-miterlimit="1"/>
<path d="M100.94 77.1404L100.62 76.7804L100.58 76.7204L99.3302 76.1104L99.1902 76.0504L98.4902 75.8104L97.9102 75.5904H97.8702L96.6802 75.3804L96.6602 75.3604L95.3502 75.1204L94.9902 74.9004L95.2002 75.3804H95.2202L95.5002 75.9904L95.9402 76.8904L96.1302 77.3004L97.1902 78.0604L98.0802 78.7004L98.4002 78.9104L98.2802 79.0504L99.0702 78.9904V78.8104L99.9902 77.8904L100.26 77.7904L100.96 77.7304L101.22 77.4904L100.92 77.1304L100.94 77.1404Z" stroke="white" stroke-width="0.5" stroke-miterlimit="1"/>
<path d="M105.55 80.4304L105.39 81.8404L104.9 83.0904L104.03 84.3204L103.65 84.2604L103.4 82.6204L101.64 81.8304L97.7404 80.4204L97.4204 79.9204L98.2904 79.0504L99.0804 78.9904V78.8104L100 77.8904C100.17 77.7904 100.77 77.7504 100.97 77.7304L101.23 77.4904C101.05 77.2404 100.68 76.9004 100.53 76.6304L101.09 76.9104L101.9 78.0104C101.9 78.0104 102.01 78.1504 102.04 78.1904C102.41 78.1004 103.1 77.3804 103.35 77.1204C103.52 77.3004 104.48 78.3104 104.48 78.3104L105.53 80.4104L105.55 80.4304Z" stroke="white" stroke-width="0.5" stroke-miterlimit="1"/>
<path d="M94.8801 84.6001L94.0801 85.4301L85.9501 90.3001L85.8701 90.3601L84.8001 91.2001L82.1401 92.1701L82.6301 91.1601L82.9501 90.0201L89.5301 87.4801H89.5501L93.2101 84.7401L93.9201 85.0401L94.8801 84.6001Z" stroke="white" stroke-width="0.5" stroke-miterlimit="1"/>
<path d="M82.95 90.02L82.63 91.16L82.14 92.17L75.2 94.89L74.09 95.31L70.81 96.2L69.98 96.42V96.44H69.94L69.74 96.5L68.86 96.74L68.09 96.96L60 99.18L82.93 90.02H82.95Z" stroke="white" stroke-width="0.5" stroke-miterlimit="1"/>
<path d="M68.8603 96.7402L68.8403 96.7602L68.0903 96.9602L68.8603 96.7402Z" stroke="white" stroke-width="0.5" stroke-miterlimit="1"/>
<path d="M69.9402 96.4399V96.4599L69.7402 96.4999L69.9402 96.4399Z" stroke="white" stroke-width="0.5" stroke-miterlimit="1"/>
<path d="M70.81 96.2002V96.2202H70.79L69.98 96.4402V96.4202L70.81 96.2002Z" stroke="white" stroke-width="0.5" stroke-miterlimit="1"/>
<path d="M84.8002 91.2002L75.2002 94.8902L82.1402 92.1702L84.8002 91.2002Z" stroke="white" stroke-width="0.5" stroke-miterlimit="1"/>
<path d="M101.47 82.04L98.7901 83.33L96.0901 84.04L94.8801 84.6L93.9201 85.04L93.2101 84.74L91.9301 84.18H91.9701L91.8301 84.12L101.47 82.04Z" stroke="white" stroke-width="0.5" stroke-miterlimit="1"/>
<path d="M62.3403 48.8701L58.3503 56.4001L46.2903 79.1901L44.3403 75.0001L59.8403 51.5101L61.0103 49.7401L62.3403 48.8701Z" stroke="white" stroke-width="0.5" stroke-miterlimit="1"/>
<g style="mix-blend-mode:multiply" opacity="0.3">
<path d="M69.2003 82.4502L63.7803 84.0402L62.0503 84.5402L63.8003 84.0202L69.2003 82.4502Z" stroke="white" stroke-width="0.5" stroke-miterlimit="1"/>
</g>
<path d="M133.926 78.1104L137.67 69.7104H139.59L143.346 78.1104H141.306L138.234 70.6944H139.002L135.918 78.1104H133.926ZM135.798 76.3104L136.314 74.8344H140.634L141.162 76.3104H135.798ZM144.46 78.1104V69.7104H146.392V75.1824L150.4 69.7104H152.224V78.1104H150.304V72.6504L146.296 78.1104H144.46ZM158.287 78.2544C157.639 78.2544 157.035 78.1504 156.475 77.9424C155.923 77.7264 155.443 77.4224 155.035 77.0304C154.627 76.6384 154.307 76.1784 154.075 75.6504C153.851 75.1224 153.739 74.5424 153.739 73.9104C153.739 73.2784 153.851 72.6984 154.075 72.1704C154.307 71.6424 154.627 71.1824 155.035 70.7904C155.451 70.3984 155.935 70.0984 156.487 69.8904C157.039 69.6744 157.643 69.5664 158.299 69.5664C159.027 69.5664 159.683 69.6944 160.267 69.9504C160.859 70.1984 161.355 70.5664 161.755 71.0544L160.507 72.2064C160.219 71.8784 159.899 71.6344 159.547 71.4744C159.195 71.3064 158.811 71.2224 158.395 71.2224C158.003 71.2224 157.643 71.2864 157.315 71.4144C156.987 71.5424 156.703 71.7264 156.463 71.9664C156.223 72.2064 156.035 72.4904 155.899 72.8184C155.771 73.1464 155.707 73.5104 155.707 73.9104C155.707 74.3104 155.771 74.6744 155.899 75.0024C156.035 75.3304 156.223 75.6144 156.463 75.8544C156.703 76.0944 156.987 76.2784 157.315 76.4064C157.643 76.5344 158.003 76.5984 158.395 76.5984C158.811 76.5984 159.195 76.5184 159.547 76.3584C159.899 76.1904 160.219 75.9384 160.507 75.6024L161.755 76.7544C161.355 77.2424 160.859 77.6144 160.267 77.8704C159.683 78.1264 159.023 78.2544 158.287 78.2544ZM170.393 78.2544C169.745 78.2544 169.141 78.1504 168.581 77.9424C168.029 77.7264 167.549 77.4224 167.141 77.0304C166.733 76.6384 166.413 76.1784 166.181 75.6504C165.957 75.1224 165.845 74.5424 165.845 73.9104C165.845 73.2784 165.957 72.6984 166.181 72.1704C166.413 71.6424 166.733 71.1824 167.141 70.7904C167.557 70.3984 168.041 70.0984 168.593 69.8904C169.145 69.6744 169.749 69.5664 170.405 69.5664C171.133 69.5664 171.789 69.6944 172.373 69.9504C172.965 70.1984 173.461 70.5664 173.861 71.0544L172.613 72.2064C172.325 71.8784 172.005 71.6344 171.653 71.4744C171.301 71.3064 170.917 71.2224 170.501 71.2224C170.109 71.2224 169.749 71.2864 169.421 71.4144C169.093 71.5424 168.809 71.7264 168.569 71.9664C168.329 72.2064 168.141 72.4904 168.005 72.8184C167.877 73.1464 167.813 73.5104 167.813 73.9104C167.813 74.3104 167.877 74.6744 168.005 75.0024C168.141 75.3304 168.329 75.6144 168.569 75.8544C168.809 76.0944 169.093 76.2784 169.421 76.4064C169.749 76.5344 170.109 76.5984 170.501 76.5984C170.917 76.5984 171.301 76.5184 171.653 76.3584C172.005 76.1904 172.325 75.9384 172.613 75.6024L173.861 76.7544C173.461 77.2424 172.965 77.6144 172.373 77.8704C171.789 78.1264 171.129 78.2544 170.393 78.2544ZM178.972 78.2544C178.308 78.2544 177.692 78.1464 177.124 77.9304C176.564 77.7144 176.076 77.4104 175.66 77.0184C175.252 76.6264 174.932 76.1664 174.7 75.6384C174.476 75.1104 174.364 74.5344 174.364 73.9104C174.364 73.2864 174.476 72.7104 174.7 72.1824C174.932 71.6544 175.256 71.1944 175.672 70.8024C176.088 70.4104 176.576 70.1064 177.136 69.8904C177.696 69.6744 178.304 69.5664 178.96 69.5664C179.624 69.5664 180.232 69.6744 180.784 69.8904C181.344 70.1064 181.828 70.4104 182.236 70.8024C182.652 71.1944 182.976 71.6544 183.208 72.1824C183.44 72.7024 183.556 73.2784 183.556 73.9104C183.556 74.5344 183.44 75.1144 183.208 75.6504C182.976 76.1784 182.652 76.6384 182.236 77.0304C181.828 77.4144 181.344 77.7144 180.784 77.9304C180.232 78.1464 179.628 78.2544 178.972 78.2544ZM178.96 76.5984C179.336 76.5984 179.68 76.5344 179.992 76.4064C180.312 76.2784 180.592 76.0944 180.832 75.8544C181.072 75.6144 181.256 75.3304 181.384 75.0024C181.52 74.6744 181.588 74.3104 181.588 73.9104C181.588 73.5104 181.52 73.1464 181.384 72.8184C181.256 72.4904 181.072 72.2064 180.832 71.9664C180.6 71.7264 180.324 71.5424 180.004 71.4144C179.684 71.2864 179.336 71.2224 178.96 71.2224C178.584 71.2224 178.236 71.2864 177.916 71.4144C177.604 71.5424 177.328 71.7264 177.088 71.9664C176.848 72.2064 176.66 72.4904 176.524 72.8184C176.396 73.1464 176.332 73.5104 176.332 73.9104C176.332 74.3024 176.396 74.6664 176.524 75.0024C176.66 75.3304 176.844 75.6144 177.076 75.8544C177.316 76.0944 177.596 76.2784 177.916 76.4064C178.236 76.5344 178.584 76.5984 178.96 76.5984ZM190.49 78.1104L187.874 74.0664L189.446 73.1184L192.698 78.1104H190.49ZM185.03 78.1104V69.7104H186.962V78.1104H185.03ZM186.398 74.7264V73.1064H189.326V74.7264H186.398ZM189.626 74.1264L187.838 73.9104L190.562 69.7104H192.614L189.626 74.1264ZM197.593 78.2544C196.929 78.2544 196.313 78.1464 195.745 77.9304C195.185 77.7144 194.697 77.4104 194.281 77.0184C193.873 76.6264 193.553 76.1664 193.321 75.6384C193.097 75.1104 192.985 74.5344 192.985 73.9104C192.985 73.2864 193.097 72.7104 193.321 72.1824C193.553 71.6544 193.877 71.1944 194.293 70.8024C194.709 70.4104 195.197 70.1064 195.757 69.8904C196.317 69.6744 196.925 69.5664 197.581 69.5664C198.245 69.5664 198.853 69.6744 199.405 69.8904C199.965 70.1064 200.449 70.4104 200.857 70.8024C201.273 71.1944 201.597 71.6544 201.829 72.1824C202.061 72.7024 202.177 73.2784 202.177 73.9104C202.177 74.5344 202.061 75.1144 201.829 75.6504C201.597 76.1784 201.273 76.6384 200.857 77.0304C200.449 77.4144 199.965 77.7144 199.405 77.9304C198.853 78.1464 198.249 78.2544 197.593 78.2544ZM197.581 76.5984C197.957 76.5984 198.301 76.5344 198.613 76.4064C198.933 76.2784 199.213 76.0944 199.453 75.8544C199.693 75.6144 199.877 75.3304 200.005 75.0024C200.141 74.6744 200.209 74.3104 200.209 73.9104C200.209 73.5104 200.141 73.1464 200.005 72.8184C199.877 72.4904 199.693 72.2064 199.453 71.9664C199.221 71.7264 198.945 71.5424 198.625 71.4144C198.305 71.2864 197.957 71.2224 197.581 71.2224C197.205 71.2224 196.857 71.2864 196.537 71.4144C196.225 71.5424 195.949 71.7264 195.709 71.9664C195.469 72.2064 195.281 72.4904 195.145 72.8184C195.017 73.1464 194.953 73.5104 194.953 73.9104C194.953 74.3024 195.017 74.6664 195.145 75.0024C195.281 75.3304 195.465 75.6144 195.697 75.8544C195.937 76.0944 196.217 76.2784 196.537 76.4064C196.857 76.5344 197.205 76.5984 197.581 76.5984ZM203.524 78.2424C203.38 78.2424 203.228 78.2304 203.068 78.2064C202.916 78.1824 202.748 78.1504 202.564 78.1104L202.684 76.4664C202.796 76.4984 202.912 76.5144 203.032 76.5144C203.36 76.5144 203.616 76.3824 203.8 76.1184C203.984 75.8464 204.116 75.4584 204.196 74.9544C204.276 74.4504 204.328 73.8384 204.352 73.1184L204.472 69.7104H210.928V78.1104H209.008V70.8504L209.452 71.2944H205.744L206.14 70.8264L206.068 73.0464C206.044 73.8704 205.988 74.6024 205.9 75.2424C205.812 75.8824 205.676 76.4264 205.492 76.8744C205.308 77.3224 205.056 77.6624 204.736 77.8944C204.416 78.1264 204.012 78.2424 203.524 78.2424Z" fill="white"/>
<path d="M135.766 109.72V101.32H136.642V108.28L142.018 101.32H142.822V109.72H141.946V102.772L136.57 109.72H135.766ZM145.453 109.72V103.42H146.305V106.204H150.277V103.42H151.129V109.72H150.277V106.936H146.305V109.72H145.453ZM154.75 109.72V103.936L154.966 104.164H152.362V103.42H157.99V104.164H155.386L155.602 103.936V109.72H154.75ZM161.629 109.78C160.973 109.78 160.397 109.644 159.901 109.372C159.405 109.092 159.017 108.712 158.737 108.232C158.457 107.744 158.317 107.188 158.317 106.564C158.317 105.94 158.449 105.388 158.713 104.908C158.985 104.428 159.353 104.052 159.817 103.78C160.289 103.5 160.817 103.36 161.401 103.36C161.993 103.36 162.517 103.496 162.973 103.768C163.437 104.032 163.801 104.408 164.065 104.896C164.329 105.376 164.461 105.932 164.461 106.564C164.461 106.604 164.457 106.648 164.449 106.696C164.449 106.736 164.449 106.78 164.449 106.828H158.965V106.192H163.993L163.657 106.444C163.657 105.988 163.557 105.584 163.357 105.232C163.165 104.872 162.901 104.592 162.565 104.392C162.229 104.192 161.841 104.092 161.401 104.092C160.969 104.092 160.581 104.192 160.237 104.392C159.893 104.592 159.625 104.872 159.433 105.232C159.241 105.592 159.145 106.004 159.145 106.468V106.6C159.145 107.08 159.249 107.504 159.457 107.872C159.673 108.232 159.969 108.516 160.345 108.724C160.729 108.924 161.165 109.024 161.653 109.024C162.037 109.024 162.393 108.956 162.721 108.82C163.057 108.684 163.345 108.476 163.585 108.196L164.065 108.748C163.785 109.084 163.433 109.34 163.009 109.516C162.593 109.692 162.133 109.78 161.629 109.78ZM165.066 109.708L165.126 108.976C165.182 108.984 165.234 108.996 165.282 109.012C165.338 109.02 165.386 109.024 165.426 109.024C165.682 109.024 165.886 108.928 166.038 108.736C166.198 108.544 166.318 108.288 166.398 107.968C166.478 107.648 166.534 107.288 166.566 106.888C166.598 106.48 166.626 106.072 166.65 105.664L166.758 103.42H171.378V109.72H170.526V103.912L170.742 104.164H167.31L167.514 103.9L167.418 105.724C167.394 106.268 167.35 106.788 167.286 107.284C167.23 107.78 167.138 108.216 167.01 108.592C166.89 108.968 166.722 109.264 166.506 109.48C166.29 109.688 166.014 109.792 165.678 109.792C165.582 109.792 165.482 109.784 165.378 109.768C165.282 109.752 165.178 109.732 165.066 109.708ZM172.648 109.708L172.708 108.976C172.764 108.984 172.816 108.996 172.864 109.012C172.92 109.02 172.968 109.024 173.008 109.024C173.264 109.024 173.468 108.928 173.62 108.736C173.78 108.544 173.9 108.288 173.98 107.968C174.06 107.648 174.116 107.288 174.148 106.888C174.18 106.48 174.208 106.072 174.232 105.664L174.34 103.42H178.96V109.72H178.108V103.912L178.324 104.164H174.892L175.096 103.9L175 105.724C174.976 106.268 174.932 106.788 174.868 107.284C174.812 107.78 174.72 108.216 174.592 108.592C174.472 108.968 174.304 109.264 174.088 109.48C173.872 109.688 173.596 109.792 173.26 109.792C173.164 109.792 173.064 109.784 172.96 109.768C172.864 109.752 172.76 109.732 172.648 109.708ZM184.082 109.78C183.426 109.78 182.85 109.644 182.354 109.372C181.858 109.092 181.47 108.712 181.19 108.232C180.91 107.744 180.77 107.188 180.77 106.564C180.77 105.94 180.902 105.388 181.166 104.908C181.438 104.428 181.806 104.052 182.27 103.78C182.742 103.5 183.27 103.36 183.854 103.36C184.446 103.36 184.97 103.496 185.426 103.768C185.89 104.032 186.254 104.408 186.518 104.896C186.782 105.376 186.914 105.932 186.914 106.564C186.914 106.604 186.91 106.648 186.902 106.696C186.902 106.736 186.902 106.78 186.902 106.828H181.418V106.192H186.446L186.11 106.444C186.11 105.988 186.01 105.584 185.81 105.232C185.618 104.872 185.354 104.592 185.018 104.392C184.682 104.192 184.294 104.092 183.854 104.092C183.422 104.092 183.034 104.192 182.69 104.392C182.346 104.592 182.078 104.872 181.886 105.232C181.694 105.592 181.598 106.004 181.598 106.468V106.6C181.598 107.08 181.702 107.504 181.91 107.872C182.126 108.232 182.422 108.516 182.798 108.724C183.182 108.924 183.618 109.024 184.106 109.024C184.49 109.024 184.846 108.956 185.174 108.82C185.51 108.684 185.798 108.476 186.038 108.196L186.518 108.748C186.238 109.084 185.886 109.34 185.462 109.516C185.046 109.692 184.586 109.78 184.082 109.78ZM193.42 109.72L190.828 106.6L191.536 106.18L194.428 109.72H193.42ZM188.8 109.72V103.42H189.652V109.72H188.8ZM189.388 106.912V106.18H191.416V106.912H189.388ZM191.608 106.66L190.816 106.54L193.324 103.42H194.248L191.608 106.66ZM196.844 109.72V103.936L197.06 104.164H194.456V103.42H200.084V104.164H197.48L197.696 103.936V109.72H196.844ZM204.457 109.72V103.42H207.241C207.953 103.42 208.513 103.556 208.921 103.828C209.337 104.1 209.545 104.5 209.545 105.028C209.545 105.54 209.349 105.936 208.957 106.216C208.565 106.488 208.049 106.624 207.409 106.624L207.577 106.372C208.329 106.372 208.881 106.512 209.233 106.792C209.585 107.072 209.761 107.476 209.761 108.004C209.761 108.548 209.561 108.972 209.161 109.276C208.769 109.572 208.157 109.72 207.325 109.72H204.457ZM205.285 109.048H207.289C207.825 109.048 208.229 108.964 208.501 108.796C208.781 108.62 208.921 108.34 208.921 107.956C208.921 107.572 208.797 107.292 208.549 107.116C208.301 106.94 207.909 106.852 207.373 106.852H205.285V109.048ZM205.285 106.216H207.181C207.669 106.216 208.041 106.124 208.297 105.94C208.561 105.756 208.693 105.488 208.693 105.136C208.693 104.784 208.561 104.52 208.297 104.344C208.041 104.168 207.669 104.08 207.181 104.08H205.285V106.216ZM218.81 109.72V108.328L218.774 108.1V105.772C218.774 105.236 218.622 104.824 218.318 104.536C218.022 104.248 217.578 104.104 216.986 104.104C216.578 104.104 216.19 104.172 215.822 104.308C215.454 104.444 215.142 104.624 214.886 104.848L214.502 104.212C214.822 103.94 215.206 103.732 215.654 103.588C216.102 103.436 216.574 103.36 217.07 103.36C217.886 103.36 218.514 103.564 218.954 103.972C219.402 104.372 219.626 104.984 219.626 105.808V109.72H218.81ZM216.638 109.78C216.166 109.78 215.754 109.704 215.402 109.552C215.058 109.392 214.794 109.176 214.61 108.904C214.426 108.624 214.334 108.304 214.334 107.944C214.334 107.616 214.41 107.32 214.562 107.056C214.722 106.784 214.978 106.568 215.33 106.408C215.69 106.24 216.17 106.156 216.77 106.156H218.942V106.792H216.794C216.186 106.792 215.762 106.9 215.522 107.116C215.29 107.332 215.174 107.6 215.174 107.92C215.174 108.28 215.314 108.568 215.594 108.784C215.874 109 216.266 109.108 216.77 109.108C217.25 109.108 217.662 109 218.006 108.784C218.358 108.56 218.614 108.24 218.774 107.824L218.966 108.412C218.806 108.828 218.526 109.16 218.126 109.408C217.734 109.656 217.238 109.78 216.638 109.78ZM220.742 109.708L220.802 108.976C220.858 108.984 220.91 108.996 220.958 109.012C221.014 109.02 221.062 109.024 221.102 109.024C221.358 109.024 221.562 108.928 221.714 108.736C221.874 108.544 221.994 108.288 222.074 107.968C222.154 107.648 222.21 107.288 222.242 106.888C222.274 106.48 222.302 106.072 222.326 105.664L222.434 103.42H227.054V109.72H226.202V103.912L226.418 104.164H222.986L223.19 103.9L223.094 105.724C223.07 106.268 223.026 106.788 222.962 107.284C222.906 107.78 222.814 108.216 222.686 108.592C222.566 108.968 222.398 109.264 222.182 109.48C221.966 109.688 221.69 109.792 221.354 109.792C221.258 109.792 221.158 109.784 221.054 109.768C220.958 109.752 220.854 109.732 220.742 109.708ZM229.476 109.72V103.42H233.94V104.164H230.112L230.328 103.948V109.72H229.476ZM237.471 109.78C236.863 109.78 236.315 109.644 235.827 109.372C235.347 109.092 234.967 108.712 234.687 108.232C234.407 107.744 234.267 107.188 234.267 106.564C234.267 105.932 234.407 105.376 234.687 104.896C234.967 104.416 235.347 104.04 235.827 103.768C236.307 103.496 236.855 103.36 237.471 103.36C238.095 103.36 238.647 103.496 239.127 103.768C239.615 104.04 239.995 104.416 240.267 104.896C240.547 105.376 240.687 105.932 240.687 106.564C240.687 107.188 240.547 107.744 240.267 108.232C239.995 108.712 239.615 109.092 239.127 109.372C238.639 109.644 238.087 109.78 237.471 109.78ZM237.471 109.024C237.927 109.024 238.331 108.924 238.683 108.724C239.035 108.516 239.311 108.228 239.511 107.86C239.719 107.484 239.823 107.052 239.823 106.564C239.823 106.068 239.719 105.636 239.511 105.268C239.311 104.9 239.035 104.616 238.683 104.416C238.331 104.208 237.931 104.104 237.483 104.104C237.035 104.104 236.635 104.208 236.283 104.416C235.931 104.616 235.651 104.9 235.443 105.268C235.235 105.636 235.131 106.068 235.131 106.564C235.131 107.052 235.235 107.484 235.443 107.86C235.651 108.228 235.931 108.516 236.283 108.724C236.635 108.924 237.031 109.024 237.471 109.024ZM245.759 109.78C245.215 109.78 244.723 109.656 244.283 109.408C243.843 109.152 243.491 108.788 243.227 108.316C242.971 107.836 242.843 107.252 242.843 106.564C242.843 105.876 242.971 105.296 243.227 104.824C243.483 104.344 243.831 103.98 244.271 103.732C244.711 103.484 245.207 103.36 245.759 103.36C246.359 103.36 246.895 103.496 247.367 103.768C247.847 104.032 248.223 104.408 248.495 104.896C248.767 105.376 248.903 105.932 248.903 106.564C248.903 107.204 248.767 107.764 248.495 108.244C248.223 108.724 247.847 109.1 247.367 109.372C246.895 109.644 246.359 109.78 245.759 109.78ZM242.507 112.048V103.42H243.323V105.316L243.239 106.576L243.359 107.848V112.048H242.507ZM245.699 109.024C246.147 109.024 246.547 108.924 246.899 108.724C247.251 108.516 247.531 108.228 247.739 107.86C247.947 107.484 248.051 107.052 248.051 106.564C248.051 106.076 247.947 105.648 247.739 105.28C247.531 104.912 247.251 104.624 246.899 104.416C246.547 104.208 246.147 104.104 245.699 104.104C245.251 104.104 244.847 104.208 244.487 104.416C244.135 104.624 243.855 104.912 243.647 105.28C243.447 105.648 243.347 106.076 243.347 106.564C243.347 107.052 243.447 107.484 243.647 107.86C243.855 108.228 244.135 108.516 244.487 108.724C244.847 108.924 245.251 109.024 245.699 109.024ZM250.734 109.72V103.42H251.586V108.424L255.798 103.42H256.554V109.72H255.702V104.704L251.502 109.72H250.734ZM260.196 109.72V103.936L260.412 104.164H257.808V103.42H263.436V104.164H260.832L261.048 103.936V109.72H260.196ZM264.668 109.72V103.42H265.532L268.388 108.256H268.028L270.932 103.42H271.724V109.72H270.944V104.392L271.1 104.464L268.388 108.952H268.004L265.268 104.416L265.448 104.38V109.72H264.668ZM278.06 109.72V108.328L278.024 108.1V105.772C278.024 105.236 277.872 104.824 277.568 104.536C277.272 104.248 276.828 104.104 276.236 104.104C275.828 104.104 275.44 104.172 275.072 104.308C274.704 104.444 274.392 104.624 274.136 104.848L273.752 104.212C274.072 103.94 274.456 103.732 274.904 103.588C275.352 103.436 275.824 103.36 276.32 103.36C277.136 103.36 277.764 103.564 278.204 103.972C278.652 104.372 278.876 104.984 278.876 105.808V109.72H278.06ZM275.888 109.78C275.416 109.78 275.004 109.704 274.652 109.552C274.308 109.392 274.044 109.176 273.86 108.904C273.676 108.624 273.584 108.304 273.584 107.944C273.584 107.616 273.66 107.32 273.812 107.056C273.972 106.784 274.228 106.568 274.58 106.408C274.94 106.24 275.42 106.156 276.02 106.156H278.192V106.792H276.044C275.436 106.792 275.012 106.9 274.772 107.116C274.54 107.332 274.424 107.6 274.424 107.92C274.424 108.28 274.564 108.568 274.844 108.784C275.124 109 275.516 109.108 276.02 109.108C276.5 109.108 276.912 109 277.256 108.784C277.608 108.56 277.864 108.24 278.024 107.824L278.216 108.412C278.056 108.828 277.776 109.16 277.376 109.408C276.984 109.656 276.488 109.78 275.888 109.78ZM280.112 109.72L282.776 106.264L282.764 106.684L280.232 103.42H281.192L283.268 106.12L282.908 106.108L284.984 103.42H285.92L283.364 106.72L283.376 106.264L286.064 109.72H285.092L282.896 106.84L283.232 106.888L281.072 109.72H280.112ZM286.921 111.472L287.449 109.252L287.545 109.768C287.361 109.768 287.205 109.708 287.077 109.588C286.957 109.468 286.897 109.312 286.897 109.12C286.897 108.928 286.957 108.772 287.077 108.652C287.205 108.532 287.357 108.472 287.533 108.472C287.717 108.472 287.865 108.536 287.977 108.664C288.097 108.792 288.157 108.944 288.157 109.12C288.157 109.184 288.153 109.248 288.145 109.312C288.137 109.376 288.121 109.448 288.097 109.528C288.073 109.608 288.041 109.704 288.001 109.816L287.497 111.472H286.921Z" fill="white"/>
<path d="M135.67 133.018C135.374 133.018 135.09 132.97 134.818 132.874C134.554 132.778 134.326 132.634 134.134 132.442L134.53 131.806C134.69 131.958 134.862 132.074 135.046 132.154C135.238 132.242 135.45 132.286 135.682 132.286C135.962 132.286 136.202 132.206 136.402 132.046C136.61 131.894 136.806 131.622 136.99 131.23L137.398 130.306L137.494 130.174L140.086 124.33H140.926L137.77 131.386C137.594 131.794 137.398 132.118 137.182 132.358C136.974 132.598 136.746 132.766 136.498 132.862C136.25 132.966 135.974 133.018 135.67 133.018ZM137.35 130.81L134.446 124.33H135.334L137.902 130.114L137.35 130.81ZM144.718 130.69C144.094 130.69 143.534 130.554 143.038 130.282C142.55 130.002 142.166 129.622 141.886 129.142C141.606 128.654 141.466 128.098 141.466 127.474C141.466 126.842 141.606 126.286 141.886 125.806C142.166 125.326 142.55 124.95 143.038 124.678C143.534 124.406 144.094 124.27 144.718 124.27C145.254 124.27 145.738 124.374 146.17 124.582C146.602 124.79 146.942 125.102 147.19 125.518L146.554 125.95C146.338 125.63 146.07 125.394 145.75 125.242C145.43 125.09 145.082 125.014 144.706 125.014C144.258 125.014 143.854 125.118 143.494 125.326C143.134 125.526 142.85 125.81 142.642 126.178C142.434 126.546 142.33 126.978 142.33 127.474C142.33 127.97 142.434 128.402 142.642 128.77C142.85 129.138 143.134 129.426 143.494 129.634C143.854 129.834 144.258 129.934 144.706 129.934C145.082 129.934 145.43 129.858 145.75 129.706C146.07 129.554 146.338 129.322 146.554 129.01L147.19 129.442C146.942 129.85 146.602 130.162 146.17 130.378C145.738 130.586 145.254 130.69 144.718 130.69ZM148.839 130.63V124.33H154.503V130.63H153.651V124.846L153.867 125.074H149.475L149.691 124.846V130.63H148.839ZM159.625 130.69C158.969 130.69 158.393 130.554 157.897 130.282C157.401 130.002 157.013 129.622 156.733 129.142C156.453 128.654 156.313 128.098 156.313 127.474C156.313 126.85 156.445 126.298 156.709 125.818C156.981 125.338 157.349 124.962 157.813 124.69C158.285 124.41 158.813 124.27 159.397 124.27C159.989 124.27 160.513 124.406 160.969 124.678C161.433 124.942 161.797 125.318 162.061 125.806C162.325 126.286 162.457 126.842 162.457 127.474C162.457 127.514 162.453 127.558 162.445 127.606C162.445 127.646 162.445 127.69 162.445 127.738H156.961V127.102H161.989L161.653 127.354C161.653 126.898 161.553 126.494 161.353 126.142C161.161 125.782 160.897 125.502 160.561 125.302C160.225 125.102 159.837 125.002 159.397 125.002C158.965 125.002 158.577 125.102 158.233 125.302C157.889 125.502 157.621 125.782 157.429 126.142C157.237 126.502 157.141 126.914 157.141 127.378V127.51C157.141 127.99 157.245 128.414 157.453 128.782C157.669 129.142 157.965 129.426 158.341 129.634C158.725 129.834 159.161 129.934 159.649 129.934C160.033 129.934 160.389 129.866 160.717 129.73C161.053 129.594 161.341 129.386 161.581 129.106L162.061 129.658C161.781 129.994 161.429 130.25 161.005 130.426C160.589 130.602 160.129 130.69 159.625 130.69ZM163.136 130.63L165.8 127.174L165.788 127.594L163.256 124.33H164.216L166.292 127.03L165.932 127.018L168.008 124.33H168.944L166.388 127.63L166.4 127.174L169.088 130.63H168.116L165.92 127.75L166.256 127.798L164.096 130.63H163.136ZM173.625 130.63V124.33H176.409C177.121 124.33 177.681 124.466 178.089 124.738C178.505 125.01 178.713 125.41 178.713 125.938C178.713 126.45 178.517 126.846 178.125 127.126C177.733 127.398 177.217 127.534 176.577 127.534L176.745 127.282C177.497 127.282 178.049 127.422 178.401 127.702C178.753 127.982 178.929 128.386 178.929 128.914C178.929 129.458 178.729 129.882 178.329 130.186C177.937 130.482 177.325 130.63 176.493 130.63H173.625ZM174.453 129.958H176.457C176.993 129.958 177.397 129.874 177.669 129.706C177.949 129.53 178.089 129.25 178.089 128.866C178.089 128.482 177.965 128.202 177.717 128.026C177.469 127.85 177.077 127.762 176.541 127.762H174.453V129.958ZM174.453 127.126H176.349C176.837 127.126 177.209 127.034 177.465 126.85C177.729 126.666 177.861 126.398 177.861 126.046C177.861 125.694 177.729 125.43 177.465 125.254C177.209 125.078 176.837 124.99 176.349 124.99H174.453V127.126ZM184.066 130.63V124.33H189.73V130.63H188.878V124.846L189.094 125.074H184.702L184.918 124.846V130.63H184.066ZM195.404 130.69C194.86 130.69 194.368 130.566 193.928 130.318C193.488 130.062 193.136 129.698 192.872 129.226C192.616 128.746 192.488 128.162 192.488 127.474C192.488 126.786 192.616 126.206 192.872 125.734C193.128 125.254 193.476 124.89 193.916 124.642C194.356 124.394 194.852 124.27 195.404 124.27C196.004 124.27 196.54 124.406 197.012 124.678C197.492 124.942 197.868 125.318 198.14 125.806C198.412 126.286 198.548 126.842 198.548 127.474C198.548 128.114 198.412 128.674 198.14 129.154C197.868 129.634 197.492 130.01 197.012 130.282C196.54 130.554 196.004 130.69 195.404 130.69ZM192.152 132.958V124.33H192.968V126.226L192.884 127.486L193.004 128.758V132.958H192.152ZM195.344 129.934C195.792 129.934 196.192 129.834 196.544 129.634C196.896 129.426 197.176 129.138 197.384 128.77C197.592 128.394 197.696 127.962 197.696 127.474C197.696 126.986 197.592 126.558 197.384 126.19C197.176 125.822 196.896 125.534 196.544 125.326C196.192 125.118 195.792 125.014 195.344 125.014C194.896 125.014 194.492 125.118 194.132 125.326C193.78 125.534 193.5 125.822 193.292 126.19C193.092 126.558 192.992 126.986 192.992 127.474C192.992 127.962 193.092 128.394 193.292 128.77C193.5 129.138 193.78 129.426 194.132 129.634C194.492 129.834 194.896 129.934 195.344 129.934ZM202.971 130.69C202.363 130.69 201.815 130.554 201.327 130.282C200.847 130.002 200.467 129.622 200.187 129.142C199.907 128.654 199.767 128.098 199.767 127.474C199.767 126.842 199.907 126.286 200.187 125.806C200.467 125.326 200.847 124.95 201.327 124.678C201.807 124.406 202.355 124.27 202.971 124.27C203.595 124.27 204.147 124.406 204.627 124.678C205.115 124.95 205.495 125.326 205.767 125.806C206.047 126.286 206.187 126.842 206.187 127.474C206.187 128.098 206.047 128.654 205.767 129.142C205.495 129.622 205.115 130.002 204.627 130.282C204.139 130.554 203.587 130.69 202.971 130.69ZM202.971 129.934C203.427 129.934 203.831 129.834 204.183 129.634C204.535 129.426 204.811 129.138 205.011 128.77C205.219 128.394 205.323 127.962 205.323 127.474C205.323 126.978 205.219 126.546 205.011 126.178C204.811 125.81 204.535 125.526 204.183 125.326C203.831 125.118 203.431 125.014 202.983 125.014C202.535 125.014 202.135 125.118 201.783 125.326C201.431 125.526 201.151 125.81 200.943 126.178C200.735 126.546 200.631 126.978 200.631 127.474C200.631 127.962 200.735 128.394 200.943 128.77C201.151 129.138 201.431 129.426 201.783 129.634C202.135 129.834 202.531 129.934 202.971 129.934ZM210.707 130.69C210.051 130.69 209.475 130.554 208.979 130.282C208.483 130.002 208.095 129.622 207.815 129.142C207.535 128.654 207.395 128.098 207.395 127.474C207.395 126.85 207.527 126.298 207.791 125.818C208.063 125.338 208.431 124.962 208.895 124.69C209.367 124.41 209.895 124.27 210.479 124.27C211.071 124.27 211.595 124.406 212.051 124.678C212.515 124.942 212.879 125.318 213.143 125.806C213.407 126.286 213.539 126.842 213.539 127.474C213.539 127.514 213.535 127.558 213.527 127.606C213.527 127.646 213.527 127.69 213.527 127.738H208.043V127.102H213.071L212.735 127.354C212.735 126.898 212.635 126.494 212.435 126.142C212.243 125.782 211.979 125.502 211.643 125.302C211.307 125.102 210.919 125.002 210.479 125.002C210.047 125.002 209.659 125.102 209.315 125.302C208.971 125.502 208.703 125.782 208.511 126.142C208.319 126.502 208.223 126.914 208.223 127.378V127.51C208.223 127.99 208.327 128.414 208.535 128.782C208.751 129.142 209.047 129.426 209.423 129.634C209.807 129.834 210.243 129.934 210.731 129.934C211.115 129.934 211.471 129.866 211.799 129.73C212.135 129.594 212.423 129.386 212.663 129.106L213.143 129.658C212.863 129.994 212.511 130.25 212.087 130.426C211.671 130.602 211.211 130.69 210.707 130.69ZM220.045 130.63L217.453 127.51L218.161 127.09L221.053 130.63H220.045ZM215.425 130.63V124.33H216.277V130.63H215.425ZM216.013 127.822V127.09H218.041V127.822H216.013ZM218.233 127.57L217.441 127.45L219.949 124.33H220.873L218.233 127.57ZM223.469 130.63V124.846L223.685 125.074H221.081V124.33H226.709V125.074H224.105L224.321 124.846V130.63H223.469ZM231.853 130.63V129.238L231.817 129.01V126.682C231.817 126.146 231.665 125.734 231.361 125.446C231.065 125.158 230.621 125.014 230.029 125.014C229.621 125.014 229.233 125.082 228.865 125.218C228.497 125.354 228.185 125.534 227.929 125.758L227.545 125.122C227.865 124.85 228.249 124.642 228.697 124.498C229.145 124.346 229.617 124.27 230.113 124.27C230.929 124.27 231.557 124.474 231.997 124.882C232.445 125.282 232.669 125.894 232.669 126.718V130.63H231.853ZM229.681 130.69C229.209 130.69 228.797 130.614 228.445 130.462C228.101 130.302 227.837 130.086 227.653 129.814C227.469 129.534 227.377 129.214 227.377 128.854C227.377 128.526 227.453 128.23 227.605 127.966C227.765 127.694 228.021 127.478 228.373 127.318C228.733 127.15 229.213 127.066 229.813 127.066H231.985V127.702H229.837C229.229 127.702 228.805 127.81 228.565 128.026C228.333 128.242 228.217 128.51 228.217 128.83C228.217 129.19 228.357 129.478 228.637 129.694C228.917 129.91 229.309 130.018 229.813 130.018C230.293 130.018 230.705 129.91 231.049 129.694C231.401 129.47 231.657 129.15 231.817 128.734L232.009 129.322C231.849 129.738 231.569 130.07 231.169 130.318C230.777 130.566 230.281 130.69 229.681 130.69ZM233.905 130.63L236.569 127.174L236.557 127.594L234.025 124.33H234.985L237.061 127.03L236.701 127.018L238.777 124.33H239.713L237.157 127.63L237.169 127.174L239.857 130.63H238.885L236.689 127.75L237.025 127.798L234.865 130.63H233.905ZM241.266 128.11L241.098 122.23H242.106L241.926 128.11H241.266ZM241.602 130.69C241.426 130.69 241.274 130.63 241.146 130.51C241.026 130.382 240.966 130.234 240.966 130.066C240.966 129.89 241.026 129.746 241.146 129.634C241.274 129.514 241.426 129.454 241.602 129.454C241.786 129.454 241.934 129.514 242.046 129.634C242.166 129.746 242.226 129.89 242.226 130.066C242.226 130.234 242.166 130.382 242.046 130.51C241.934 130.63 241.786 130.69 241.602 130.69Z" fill="white"/>
</svg>
